M48
; DRILL file {KiCad 7.0.9} date Tue Jan  2 07:13:13 2024
; FORMAT={-:-/ absolute / inch / decimal}
; #@! TF.CreationDate,2024-01-02T07:13:13+09:00
; #@! TF.GenerationSoftware,Kicad,Pcbnew,7.0.9
; #@! TF.FileFunction,NonPlated,1,2,NPTH
FMAT,2
INCH
; #@! TA.AperFunction,NonPlated,NPTH,ComponentDrill
T1C0.0256
; #@! TA.AperFunction,NonPlated,NPTH,ComponentDrill
T2C0.0670
; #@! TA.AperFunction,NonPlated,NPTH,ComponentDrill
T3C0.1181
; #@! TA.AperFunction,NonPlated,NPTH,ComponentDrill
T4C0.1570
%
G90
G05
T1
X5.2346Y-0.7472
X5.4622Y-0.7472
T2
X-0.0878Y-1.6083
X-0.0878Y-2.3563
X-0.0878Y-3.1043
X0.3122Y-1.6083
X0.3122Y-2.3563
X0.3122Y-3.1043
X0.6602Y-0.8602
X0.6602Y-1.6083
X0.6602Y-2.3563
X0.6602Y-3.1043
X1.0602Y-0.8602
X1.0602Y-1.6083
X1.0602Y-2.3563
X1.0602Y-3.1043
X1.4083Y-0.8602
X1.4083Y-1.6083
X1.4083Y-2.3563
X1.4083Y-3.1043
X1.8083Y-0.8602
X1.8083Y-1.6083
X1.8083Y-2.3563
X1.8083Y-3.1043
X2.1563Y-0.8602
X2.1563Y-1.6083
X2.1563Y-3.1043
X2.1567Y-2.3563
X2.5563Y-0.8602
X2.5563Y-1.6083
X2.5563Y-3.1043
X2.5567Y-2.3563
X2.9043Y-0.8602
X2.9043Y-1.6083
X2.9043Y-2.3563
X2.9043Y-3.1043
X2.9043Y-3.8524
X3.3043Y-0.8602
X3.3043Y-1.6083
X3.3043Y-2.3563
X3.3043Y-3.1043
X3.3043Y-3.8524
X3.6524Y-0.8602
X3.6524Y-1.6083
X3.6524Y-2.3563
X3.6524Y-3.1043
X3.6524Y-3.8524
X4.0524Y-0.8602
X4.0524Y-1.6083
X4.0524Y-2.3563
X4.0524Y-3.1043
X4.0524Y-3.8524
X4.4004Y-0.8602
X4.4004Y-1.6083
X4.4004Y-2.3563
X4.4004Y-3.1043
X4.4004Y-3.8524
X4.8004Y-0.8602
X4.8004Y-1.6083
X4.8004Y-2.3563
X4.8004Y-3.1043
X4.8004Y-3.8524
X5.8965Y-0.8602
X5.8965Y-1.6083
X5.8965Y-2.3563
X5.8965Y-3.1043
X5.8965Y-3.8524
X6.2965Y-0.8602
X6.2965Y-1.6083
X6.2965Y-2.3563
X6.2965Y-3.1043
X6.2965Y-3.8524
X6.6445Y-0.8602
X6.6445Y-1.6083
X6.6445Y-2.3563
X6.6445Y-3.1043
X6.6445Y-3.8524
X7.0445Y-0.8602
X7.0445Y-1.6083
X7.0445Y-2.3563
X7.0445Y-3.1043
X7.0445Y-3.8524
X7.3925Y-0.8602
X7.3925Y-1.6083
X7.3925Y-2.3563
X7.3925Y-3.1043
X7.3925Y-3.8524
X7.7925Y-0.8602
X7.7925Y-1.6083
X7.7925Y-2.3563
X7.7925Y-3.1043
X7.7925Y-3.8524
X8.1406Y-0.8602
X8.1406Y-1.6083
X8.1406Y-2.3563
X8.1406Y-3.1043
X8.5406Y-0.8602
X8.5406Y-1.6083
X8.5406Y-2.3563
X8.5406Y-3.1043
X8.8886Y-0.8602
X8.8886Y-1.6083
X8.8886Y-2.3563
X8.8886Y-3.1043
X9.2886Y-0.8602
X9.2886Y-1.6083
X9.2886Y-2.3563
X9.2886Y-3.1043
X9.6366Y-0.8602
X9.6366Y-1.6083
X9.6366Y-2.3563
X9.6366Y-3.1043
X10.0366Y-0.8602
X10.0366Y-1.6083
X10.0366Y-2.3563
X10.0366Y-3.1043
X10.3846Y-1.6083
X10.3846Y-2.3563
X10.3846Y-3.1043
X10.7846Y-1.6083
X10.7846Y-2.3563
X10.7846Y-3.1043
T3
X-0.0378Y-1.5083
X-0.0378Y-2.2563
X-0.0378Y-3.0043
X0.2122Y-1.4083
X0.2122Y-2.1563
X0.2122Y-2.9043
X0.7102Y-0.7602
X0.7102Y-1.5083
X0.7102Y-2.2563
X0.7102Y-3.0043
X0.9602Y-0.6602
X0.9602Y-1.4083
X0.9602Y-2.1563
X0.9602Y-2.9043
X1.4583Y-0.7602
X1.4583Y-1.5083
X1.4583Y-2.2563
X1.4583Y-3.0043
X1.7083Y-0.6602
X1.7083Y-1.4083
X1.7083Y-2.1563
X1.7083Y-2.9043
X2.2063Y-0.7602
X2.2063Y-1.5083
X2.2063Y-3.0043
X2.2067Y-2.2563
X2.4563Y-0.6602
X2.4563Y-1.4083
X2.4563Y-2.9043
X2.4567Y-2.1563
X2.9543Y-0.7602
X2.9543Y-1.5083
X2.9543Y-2.2563
X2.9543Y-3.0043
X2.9543Y-3.7524
X3.2043Y-0.6602
X3.2043Y-1.4083
X3.2043Y-2.1563
X3.2043Y-2.9043
X3.2043Y-3.6524
X3.7024Y-0.7602
X3.7024Y-1.5083
X3.7024Y-2.2563
X3.7024Y-3.0043
X3.7024Y-3.7524
X3.9524Y-0.6602
X3.9524Y-1.4083
X3.9524Y-2.1563
X3.9524Y-2.9043
X3.9524Y-3.6524
X4.4504Y-0.7602
X4.4504Y-1.5083
X4.4504Y-2.2563
X4.4504Y-3.0043
X4.4504Y-3.7524
X4.7004Y-0.6602
X4.7004Y-1.4083
X4.7004Y-2.1563
X4.7004Y-2.9043
X4.7004Y-3.6524
X5.9465Y-0.7602
X5.9465Y-1.5083
X5.9465Y-2.2563
X5.9465Y-3.0043
X5.9465Y-3.7524
X6.1965Y-0.6602
X6.1965Y-1.4083
X6.1965Y-2.1563
X6.1965Y-2.9043
X6.1965Y-3.6524
X6.6945Y-0.7602
X6.6945Y-1.5083
X6.6945Y-2.2563
X6.6945Y-3.0043
X6.6945Y-3.7524
X6.9445Y-0.6602
X6.9445Y-1.4083
X6.9445Y-2.1563
X6.9445Y-2.9043
X6.9445Y-3.6524
X7.4425Y-0.7602
X7.4425Y-1.5083
X7.4425Y-2.2563
X7.4425Y-3.0043
X7.4425Y-3.7524
X7.6925Y-0.6602
X7.6925Y-1.4083
X7.6925Y-2.1563
X7.6925Y-2.9043
X7.6925Y-3.6524
X8.1906Y-0.7602
X8.1906Y-1.5083
X8.1906Y-2.2563
X8.1906Y-3.0043
X8.4406Y-0.6602
X8.4406Y-1.4083
X8.4406Y-2.1563
X8.4406Y-2.9043
X8.9386Y-0.7602
X8.9386Y-1.5083
X8.9386Y-2.2563
X8.9386Y-3.0043
X9.1886Y-0.6602
X9.1886Y-1.4083
X9.1886Y-2.1563
X9.1886Y-2.9043
X9.6866Y-0.7602
X9.6866Y-1.5083
X9.6866Y-2.2563
X9.6866Y-3.0043
X9.9366Y-0.6602
X9.9366Y-1.4083
X9.9366Y-2.1563
X9.9366Y-2.9043
X10.4346Y-1.5083
X10.4346Y-2.2563
X10.4346Y-3.0043
X10.6846Y-1.4083
X10.6846Y-2.1563
X10.6846Y-2.9043
T4
X0.1122Y-1.6083
X0.1122Y-2.3563
X0.1122Y-3.1043
X0.8602Y-0.8602
X0.8602Y-1.6083
X0.8602Y-2.3563
X0.8602Y-3.1043
X1.6083Y-0.8602
X1.6083Y-1.6083
X1.6083Y-2.3563
X1.6083Y-3.1043
X2.3563Y-0.8602
X2.3563Y-1.6083
X2.3563Y-3.1043
X2.3567Y-2.3563
X3.1043Y-0.8602
X3.1043Y-1.6083
X3.1043Y-2.3563
X3.1043Y-3.1043
X3.1043Y-3.8524
X3.8524Y-0.8602
X3.8524Y-1.6083
X3.8524Y-2.3563
X3.8524Y-3.1043
X3.8524Y-3.8524
X4.6004Y-0.8602
X4.6004Y-1.6083
X4.6004Y-2.3563
X4.6004Y-3.1043
X4.6004Y-3.8524
X6.0965Y-0.8602
X6.0965Y-1.6083
X6.0965Y-2.3563
X6.0965Y-3.1043
X6.0965Y-3.8524
X6.8445Y-0.8602
X6.8445Y-1.6083
X6.8445Y-2.3563
X6.8445Y-3.1043
X6.8445Y-3.8524
X7.5925Y-0.8602
X7.5925Y-1.6083
X7.5925Y-2.3563
X7.5925Y-3.1043
X7.5925Y-3.8524
X8.3406Y-0.8602
X8.3406Y-1.6083
X8.3406Y-2.3563
X8.3406Y-3.1043
X9.0886Y-0.8602
X9.0886Y-1.6083
X9.0886Y-2.3563
X9.0886Y-3.1043
X9.8366Y-0.8602
X9.8366Y-1.6083
X9.8366Y-2.3563
X9.8366Y-3.1043
X10.5846Y-1.6083
X10.5846Y-2.3563
X10.5846Y-3.1043
T0
M30
