%TF.GenerationSoftware,KiCad,Pcbnew,7.0.9*%
%TF.CreationDate,2024-01-02T07:13:13+09:00*%
%TF.ProjectId,SpaceCadet2024,53706163-6543-4616-9465-74323032342e,rev?*%
%TF.SameCoordinates,Original*%
%TF.FileFunction,Legend,Bot*%
%TF.FilePolarity,Positive*%
%FSLAX46Y46*%
G04 Gerber Fmt 4.6, Leading zero omitted, Abs format (unit mm)*
G04 Created by KiCad (PCBNEW 7.0.9) date 2024-01-02 07:13:13*
%MOMM*%
%LPD*%
G01*
G04 APERTURE LIST*
G04 Aperture macros list*
%AMRoundRect*
0 Rectangle with rounded corners*
0 $1 Rounding radius*
0 $2 $3 $4 $5 $6 $7 $8 $9 X,Y pos of 4 corners*
0 Add a 4 corners polygon primitive as box body*
4,1,4,$2,$3,$4,$5,$6,$7,$8,$9,$2,$3,0*
0 Add four circle primitives for the rounded corners*
1,1,$1+$1,$2,$3*
1,1,$1+$1,$4,$5*
1,1,$1+$1,$6,$7*
1,1,$1+$1,$8,$9*
0 Add four rect primitives between the rounded corners*
20,1,$1+$1,$2,$3,$4,$5,0*
20,1,$1+$1,$4,$5,$6,$7,0*
20,1,$1+$1,$6,$7,$8,$9,0*
20,1,$1+$1,$8,$9,$2,$3,0*%
G04 Aperture macros list end*
%ADD10C,0.150000*%
%ADD11C,0.120000*%
%ADD12C,1.701800*%
%ADD13C,3.000000*%
%ADD14C,3.987800*%
%ADD15RoundRect,0.200000X-1.075000X-1.050000X1.075000X-1.050000X1.075000X1.050000X-1.075000X1.050000X0*%
%ADD16R,0.950000X1.300000*%
%ADD17C,2.000000*%
%ADD18RoundRect,0.250000X-0.625000X0.375000X-0.625000X-0.375000X0.625000X-0.375000X0.625000X0.375000X0*%
%ADD19RoundRect,0.150000X0.150000X-0.512500X0.150000X0.512500X-0.150000X0.512500X-0.150000X-0.512500X0*%
%ADD20RoundRect,0.135000X-0.185000X0.135000X-0.185000X-0.135000X0.185000X-0.135000X0.185000X0.135000X0*%
%ADD21RoundRect,0.140000X0.170000X-0.140000X0.170000X0.140000X-0.170000X0.140000X-0.170000X-0.140000X0*%
%ADD22RoundRect,0.075000X0.075000X-0.662500X0.075000X0.662500X-0.075000X0.662500X-0.075000X-0.662500X0*%
%ADD23RoundRect,0.075000X0.662500X-0.075000X0.662500X0.075000X-0.662500X0.075000X-0.662500X-0.075000X0*%
%ADD24RoundRect,0.140000X-0.140000X-0.170000X0.140000X-0.170000X0.140000X0.170000X-0.140000X0.170000X0*%
%ADD25RoundRect,0.140000X0.140000X0.170000X-0.140000X0.170000X-0.140000X-0.170000X0.140000X-0.170000X0*%
%ADD26C,0.650000*%
%ADD27R,0.600000X1.450000*%
%ADD28R,0.300000X1.450000*%
%ADD29RoundRect,0.135000X0.185000X-0.135000X0.185000X0.135000X-0.185000X0.135000X-0.185000X-0.135000X0*%
G04 APERTURE END LIST*
D10*
X137202381Y-56704819D02*
X137535714Y-56228628D01*
X137773809Y-56704819D02*
X137773809Y-55704819D01*
X137773809Y-55704819D02*
X137392857Y-55704819D01*
X137392857Y-55704819D02*
X137297619Y-55752438D01*
X137297619Y-55752438D02*
X137250000Y-55800057D01*
X137250000Y-55800057D02*
X137202381Y-55895295D01*
X137202381Y-55895295D02*
X137202381Y-56038152D01*
X137202381Y-56038152D02*
X137250000Y-56133390D01*
X137250000Y-56133390D02*
X137297619Y-56181009D01*
X137297619Y-56181009D02*
X137392857Y-56228628D01*
X137392857Y-56228628D02*
X137773809Y-56228628D01*
X136773809Y-56181009D02*
X136440476Y-56181009D01*
X136297619Y-56704819D02*
X136773809Y-56704819D01*
X136773809Y-56704819D02*
X136773809Y-55704819D01*
X136773809Y-55704819D02*
X136297619Y-55704819D01*
X135916666Y-56657200D02*
X135773809Y-56704819D01*
X135773809Y-56704819D02*
X135535714Y-56704819D01*
X135535714Y-56704819D02*
X135440476Y-56657200D01*
X135440476Y-56657200D02*
X135392857Y-56609580D01*
X135392857Y-56609580D02*
X135345238Y-56514342D01*
X135345238Y-56514342D02*
X135345238Y-56419104D01*
X135345238Y-56419104D02*
X135392857Y-56323866D01*
X135392857Y-56323866D02*
X135440476Y-56276247D01*
X135440476Y-56276247D02*
X135535714Y-56228628D01*
X135535714Y-56228628D02*
X135726190Y-56181009D01*
X135726190Y-56181009D02*
X135821428Y-56133390D01*
X135821428Y-56133390D02*
X135869047Y-56085771D01*
X135869047Y-56085771D02*
X135916666Y-55990533D01*
X135916666Y-55990533D02*
X135916666Y-55895295D01*
X135916666Y-55895295D02*
X135869047Y-55800057D01*
X135869047Y-55800057D02*
X135821428Y-55752438D01*
X135821428Y-55752438D02*
X135726190Y-55704819D01*
X135726190Y-55704819D02*
X135488095Y-55704819D01*
X135488095Y-55704819D02*
X135345238Y-55752438D01*
X134916666Y-56181009D02*
X134583333Y-56181009D01*
X134440476Y-56704819D02*
X134916666Y-56704819D01*
X134916666Y-56704819D02*
X134916666Y-55704819D01*
X134916666Y-55704819D02*
X134440476Y-55704819D01*
X134154761Y-55704819D02*
X133583333Y-55704819D01*
X133869047Y-56704819D02*
X133869047Y-55704819D01*
X142833333Y-20181009D02*
X143166666Y-20181009D01*
X143166666Y-20704819D02*
X143166666Y-19704819D01*
X143166666Y-19704819D02*
X142690476Y-19704819D01*
X141785714Y-20704819D02*
X142357142Y-20704819D01*
X142071428Y-20704819D02*
X142071428Y-19704819D01*
X142071428Y-19704819D02*
X142166666Y-19847676D01*
X142166666Y-19847676D02*
X142261904Y-19942914D01*
X142261904Y-19942914D02*
X142357142Y-19990533D01*
X145761904Y-27654819D02*
X145761904Y-28464342D01*
X145761904Y-28464342D02*
X145714285Y-28559580D01*
X145714285Y-28559580D02*
X145666666Y-28607200D01*
X145666666Y-28607200D02*
X145571428Y-28654819D01*
X145571428Y-28654819D02*
X145380952Y-28654819D01*
X145380952Y-28654819D02*
X145285714Y-28607200D01*
X145285714Y-28607200D02*
X145238095Y-28559580D01*
X145238095Y-28559580D02*
X145190476Y-28464342D01*
X145190476Y-28464342D02*
X145190476Y-27654819D01*
X144809523Y-27654819D02*
X144190476Y-27654819D01*
X144190476Y-27654819D02*
X144523809Y-28035771D01*
X144523809Y-28035771D02*
X144380952Y-28035771D01*
X144380952Y-28035771D02*
X144285714Y-28083390D01*
X144285714Y-28083390D02*
X144238095Y-28131009D01*
X144238095Y-28131009D02*
X144190476Y-28226247D01*
X144190476Y-28226247D02*
X144190476Y-28464342D01*
X144190476Y-28464342D02*
X144238095Y-28559580D01*
X144238095Y-28559580D02*
X144285714Y-28607200D01*
X144285714Y-28607200D02*
X144380952Y-28654819D01*
X144380952Y-28654819D02*
X144666666Y-28654819D01*
X144666666Y-28654819D02*
X144761904Y-28607200D01*
X144761904Y-28607200D02*
X144809523Y-28559580D01*
X139916666Y-22779819D02*
X140249999Y-22303628D01*
X140488094Y-22779819D02*
X140488094Y-21779819D01*
X140488094Y-21779819D02*
X140107142Y-21779819D01*
X140107142Y-21779819D02*
X140011904Y-21827438D01*
X140011904Y-21827438D02*
X139964285Y-21875057D01*
X139964285Y-21875057D02*
X139916666Y-21970295D01*
X139916666Y-21970295D02*
X139916666Y-22113152D01*
X139916666Y-22113152D02*
X139964285Y-22208390D01*
X139964285Y-22208390D02*
X140011904Y-22256009D01*
X140011904Y-22256009D02*
X140107142Y-22303628D01*
X140107142Y-22303628D02*
X140488094Y-22303628D01*
X139535713Y-21875057D02*
X139488094Y-21827438D01*
X139488094Y-21827438D02*
X139392856Y-21779819D01*
X139392856Y-21779819D02*
X139154761Y-21779819D01*
X139154761Y-21779819D02*
X139059523Y-21827438D01*
X139059523Y-21827438D02*
X139011904Y-21875057D01*
X139011904Y-21875057D02*
X138964285Y-21970295D01*
X138964285Y-21970295D02*
X138964285Y-22065533D01*
X138964285Y-22065533D02*
X139011904Y-22208390D01*
X139011904Y-22208390D02*
X139583332Y-22779819D01*
X139583332Y-22779819D02*
X138964285Y-22779819D01*
X139359580Y-45083333D02*
X139407200Y-45035714D01*
X139407200Y-45035714D02*
X139454819Y-44892857D01*
X139454819Y-44892857D02*
X139454819Y-44797619D01*
X139454819Y-44797619D02*
X139407200Y-44654762D01*
X139407200Y-44654762D02*
X139311961Y-44559524D01*
X139311961Y-44559524D02*
X139216723Y-44511905D01*
X139216723Y-44511905D02*
X139026247Y-44464286D01*
X139026247Y-44464286D02*
X138883390Y-44464286D01*
X138883390Y-44464286D02*
X138692914Y-44511905D01*
X138692914Y-44511905D02*
X138597676Y-44559524D01*
X138597676Y-44559524D02*
X138502438Y-44654762D01*
X138502438Y-44654762D02*
X138454819Y-44797619D01*
X138454819Y-44797619D02*
X138454819Y-44892857D01*
X138454819Y-44892857D02*
X138502438Y-45035714D01*
X138502438Y-45035714D02*
X138550057Y-45083333D01*
X138883390Y-45654762D02*
X138835771Y-45559524D01*
X138835771Y-45559524D02*
X138788152Y-45511905D01*
X138788152Y-45511905D02*
X138692914Y-45464286D01*
X138692914Y-45464286D02*
X138645295Y-45464286D01*
X138645295Y-45464286D02*
X138550057Y-45511905D01*
X138550057Y-45511905D02*
X138502438Y-45559524D01*
X138502438Y-45559524D02*
X138454819Y-45654762D01*
X138454819Y-45654762D02*
X138454819Y-45845238D01*
X138454819Y-45845238D02*
X138502438Y-45940476D01*
X138502438Y-45940476D02*
X138550057Y-45988095D01*
X138550057Y-45988095D02*
X138645295Y-46035714D01*
X138645295Y-46035714D02*
X138692914Y-46035714D01*
X138692914Y-46035714D02*
X138788152Y-45988095D01*
X138788152Y-45988095D02*
X138835771Y-45940476D01*
X138835771Y-45940476D02*
X138883390Y-45845238D01*
X138883390Y-45845238D02*
X138883390Y-45654762D01*
X138883390Y-45654762D02*
X138931009Y-45559524D01*
X138931009Y-45559524D02*
X138978628Y-45511905D01*
X138978628Y-45511905D02*
X139073866Y-45464286D01*
X139073866Y-45464286D02*
X139264342Y-45464286D01*
X139264342Y-45464286D02*
X139359580Y-45511905D01*
X139359580Y-45511905D02*
X139407200Y-45559524D01*
X139407200Y-45559524D02*
X139454819Y-45654762D01*
X139454819Y-45654762D02*
X139454819Y-45845238D01*
X139454819Y-45845238D02*
X139407200Y-45940476D01*
X139407200Y-45940476D02*
X139359580Y-45988095D01*
X139359580Y-45988095D02*
X139264342Y-46035714D01*
X139264342Y-46035714D02*
X139073866Y-46035714D01*
X139073866Y-46035714D02*
X138978628Y-45988095D01*
X138978628Y-45988095D02*
X138931009Y-45940476D01*
X138931009Y-45940476D02*
X138883390Y-45845238D01*
X143166666Y-43704819D02*
X143499999Y-43228628D01*
X143738094Y-43704819D02*
X143738094Y-42704819D01*
X143738094Y-42704819D02*
X143357142Y-42704819D01*
X143357142Y-42704819D02*
X143261904Y-42752438D01*
X143261904Y-42752438D02*
X143214285Y-42800057D01*
X143214285Y-42800057D02*
X143166666Y-42895295D01*
X143166666Y-42895295D02*
X143166666Y-43038152D01*
X143166666Y-43038152D02*
X143214285Y-43133390D01*
X143214285Y-43133390D02*
X143261904Y-43181009D01*
X143261904Y-43181009D02*
X143357142Y-43228628D01*
X143357142Y-43228628D02*
X143738094Y-43228628D01*
X142833332Y-42704819D02*
X142214285Y-42704819D01*
X142214285Y-42704819D02*
X142547618Y-43085771D01*
X142547618Y-43085771D02*
X142404761Y-43085771D01*
X142404761Y-43085771D02*
X142309523Y-43133390D01*
X142309523Y-43133390D02*
X142261904Y-43181009D01*
X142261904Y-43181009D02*
X142214285Y-43276247D01*
X142214285Y-43276247D02*
X142214285Y-43514342D01*
X142214285Y-43514342D02*
X142261904Y-43609580D01*
X142261904Y-43609580D02*
X142309523Y-43657200D01*
X142309523Y-43657200D02*
X142404761Y-43704819D01*
X142404761Y-43704819D02*
X142690475Y-43704819D01*
X142690475Y-43704819D02*
X142785713Y-43657200D01*
X142785713Y-43657200D02*
X142833332Y-43609580D01*
X135761904Y-29704819D02*
X135761904Y-30514342D01*
X135761904Y-30514342D02*
X135714285Y-30609580D01*
X135714285Y-30609580D02*
X135666666Y-30657200D01*
X135666666Y-30657200D02*
X135571428Y-30704819D01*
X135571428Y-30704819D02*
X135380952Y-30704819D01*
X135380952Y-30704819D02*
X135285714Y-30657200D01*
X135285714Y-30657200D02*
X135238095Y-30609580D01*
X135238095Y-30609580D02*
X135190476Y-30514342D01*
X135190476Y-30514342D02*
X135190476Y-29704819D01*
X134190476Y-30704819D02*
X134761904Y-30704819D01*
X134476190Y-30704819D02*
X134476190Y-29704819D01*
X134476190Y-29704819D02*
X134571428Y-29847676D01*
X134571428Y-29847676D02*
X134666666Y-29942914D01*
X134666666Y-29942914D02*
X134761904Y-29990533D01*
X144416666Y-31359580D02*
X144464285Y-31407200D01*
X144464285Y-31407200D02*
X144607142Y-31454819D01*
X144607142Y-31454819D02*
X144702380Y-31454819D01*
X144702380Y-31454819D02*
X144845237Y-31407200D01*
X144845237Y-31407200D02*
X144940475Y-31311961D01*
X144940475Y-31311961D02*
X144988094Y-31216723D01*
X144988094Y-31216723D02*
X145035713Y-31026247D01*
X145035713Y-31026247D02*
X145035713Y-30883390D01*
X145035713Y-30883390D02*
X144988094Y-30692914D01*
X144988094Y-30692914D02*
X144940475Y-30597676D01*
X144940475Y-30597676D02*
X144845237Y-30502438D01*
X144845237Y-30502438D02*
X144702380Y-30454819D01*
X144702380Y-30454819D02*
X144607142Y-30454819D01*
X144607142Y-30454819D02*
X144464285Y-30502438D01*
X144464285Y-30502438D02*
X144416666Y-30550057D01*
X144035713Y-30550057D02*
X143988094Y-30502438D01*
X143988094Y-30502438D02*
X143892856Y-30454819D01*
X143892856Y-30454819D02*
X143654761Y-30454819D01*
X143654761Y-30454819D02*
X143559523Y-30502438D01*
X143559523Y-30502438D02*
X143511904Y-30550057D01*
X143511904Y-30550057D02*
X143464285Y-30645295D01*
X143464285Y-30645295D02*
X143464285Y-30740533D01*
X143464285Y-30740533D02*
X143511904Y-30883390D01*
X143511904Y-30883390D02*
X144083332Y-31454819D01*
X144083332Y-31454819D02*
X143464285Y-31454819D01*
X136511904Y-26954819D02*
X136511904Y-27764342D01*
X136511904Y-27764342D02*
X136464285Y-27859580D01*
X136464285Y-27859580D02*
X136416666Y-27907200D01*
X136416666Y-27907200D02*
X136321428Y-27954819D01*
X136321428Y-27954819D02*
X136130952Y-27954819D01*
X136130952Y-27954819D02*
X136035714Y-27907200D01*
X136035714Y-27907200D02*
X135988095Y-27859580D01*
X135988095Y-27859580D02*
X135940476Y-27764342D01*
X135940476Y-27764342D02*
X135940476Y-26954819D01*
X135511904Y-27050057D02*
X135464285Y-27002438D01*
X135464285Y-27002438D02*
X135369047Y-26954819D01*
X135369047Y-26954819D02*
X135130952Y-26954819D01*
X135130952Y-26954819D02*
X135035714Y-27002438D01*
X135035714Y-27002438D02*
X134988095Y-27050057D01*
X134988095Y-27050057D02*
X134940476Y-27145295D01*
X134940476Y-27145295D02*
X134940476Y-27240533D01*
X134940476Y-27240533D02*
X134988095Y-27383390D01*
X134988095Y-27383390D02*
X135559523Y-27954819D01*
X135559523Y-27954819D02*
X134940476Y-27954819D01*
X129166666Y-32359580D02*
X129214285Y-32407200D01*
X129214285Y-32407200D02*
X129357142Y-32454819D01*
X129357142Y-32454819D02*
X129452380Y-32454819D01*
X129452380Y-32454819D02*
X129595237Y-32407200D01*
X129595237Y-32407200D02*
X129690475Y-32311961D01*
X129690475Y-32311961D02*
X129738094Y-32216723D01*
X129738094Y-32216723D02*
X129785713Y-32026247D01*
X129785713Y-32026247D02*
X129785713Y-31883390D01*
X129785713Y-31883390D02*
X129738094Y-31692914D01*
X129738094Y-31692914D02*
X129690475Y-31597676D01*
X129690475Y-31597676D02*
X129595237Y-31502438D01*
X129595237Y-31502438D02*
X129452380Y-31454819D01*
X129452380Y-31454819D02*
X129357142Y-31454819D01*
X129357142Y-31454819D02*
X129214285Y-31502438D01*
X129214285Y-31502438D02*
X129166666Y-31550057D01*
X128833332Y-31454819D02*
X128166666Y-31454819D01*
X128166666Y-31454819D02*
X128595237Y-32454819D01*
X138666666Y-25859580D02*
X138714285Y-25907200D01*
X138714285Y-25907200D02*
X138857142Y-25954819D01*
X138857142Y-25954819D02*
X138952380Y-25954819D01*
X138952380Y-25954819D02*
X139095237Y-25907200D01*
X139095237Y-25907200D02*
X139190475Y-25811961D01*
X139190475Y-25811961D02*
X139238094Y-25716723D01*
X139238094Y-25716723D02*
X139285713Y-25526247D01*
X139285713Y-25526247D02*
X139285713Y-25383390D01*
X139285713Y-25383390D02*
X139238094Y-25192914D01*
X139238094Y-25192914D02*
X139190475Y-25097676D01*
X139190475Y-25097676D02*
X139095237Y-25002438D01*
X139095237Y-25002438D02*
X138952380Y-24954819D01*
X138952380Y-24954819D02*
X138857142Y-24954819D01*
X138857142Y-24954819D02*
X138714285Y-25002438D01*
X138714285Y-25002438D02*
X138666666Y-25050057D01*
X137714285Y-25954819D02*
X138285713Y-25954819D01*
X137999999Y-25954819D02*
X137999999Y-24954819D01*
X137999999Y-24954819D02*
X138095237Y-25097676D01*
X138095237Y-25097676D02*
X138190475Y-25192914D01*
X138190475Y-25192914D02*
X138285713Y-25240533D01*
X132916666Y-43609580D02*
X132964285Y-43657200D01*
X132964285Y-43657200D02*
X133107142Y-43704819D01*
X133107142Y-43704819D02*
X133202380Y-43704819D01*
X133202380Y-43704819D02*
X133345237Y-43657200D01*
X133345237Y-43657200D02*
X133440475Y-43561961D01*
X133440475Y-43561961D02*
X133488094Y-43466723D01*
X133488094Y-43466723D02*
X133535713Y-43276247D01*
X133535713Y-43276247D02*
X133535713Y-43133390D01*
X133535713Y-43133390D02*
X133488094Y-42942914D01*
X133488094Y-42942914D02*
X133440475Y-42847676D01*
X133440475Y-42847676D02*
X133345237Y-42752438D01*
X133345237Y-42752438D02*
X133202380Y-42704819D01*
X133202380Y-42704819D02*
X133107142Y-42704819D01*
X133107142Y-42704819D02*
X132964285Y-42752438D01*
X132964285Y-42752438D02*
X132916666Y-42800057D01*
X132011904Y-42704819D02*
X132488094Y-42704819D01*
X132488094Y-42704819D02*
X132535713Y-43181009D01*
X132535713Y-43181009D02*
X132488094Y-43133390D01*
X132488094Y-43133390D02*
X132392856Y-43085771D01*
X132392856Y-43085771D02*
X132154761Y-43085771D01*
X132154761Y-43085771D02*
X132059523Y-43133390D01*
X132059523Y-43133390D02*
X132011904Y-43181009D01*
X132011904Y-43181009D02*
X131964285Y-43276247D01*
X131964285Y-43276247D02*
X131964285Y-43514342D01*
X131964285Y-43514342D02*
X132011904Y-43609580D01*
X132011904Y-43609580D02*
X132059523Y-43657200D01*
X132059523Y-43657200D02*
X132154761Y-43704819D01*
X132154761Y-43704819D02*
X132392856Y-43704819D01*
X132392856Y-43704819D02*
X132488094Y-43657200D01*
X132488094Y-43657200D02*
X132535713Y-43609580D01*
X129166666Y-31109580D02*
X129214285Y-31157200D01*
X129214285Y-31157200D02*
X129357142Y-31204819D01*
X129357142Y-31204819D02*
X129452380Y-31204819D01*
X129452380Y-31204819D02*
X129595237Y-31157200D01*
X129595237Y-31157200D02*
X129690475Y-31061961D01*
X129690475Y-31061961D02*
X129738094Y-30966723D01*
X129738094Y-30966723D02*
X129785713Y-30776247D01*
X129785713Y-30776247D02*
X129785713Y-30633390D01*
X129785713Y-30633390D02*
X129738094Y-30442914D01*
X129738094Y-30442914D02*
X129690475Y-30347676D01*
X129690475Y-30347676D02*
X129595237Y-30252438D01*
X129595237Y-30252438D02*
X129452380Y-30204819D01*
X129452380Y-30204819D02*
X129357142Y-30204819D01*
X129357142Y-30204819D02*
X129214285Y-30252438D01*
X129214285Y-30252438D02*
X129166666Y-30300057D01*
X128309523Y-30204819D02*
X128499999Y-30204819D01*
X128499999Y-30204819D02*
X128595237Y-30252438D01*
X128595237Y-30252438D02*
X128642856Y-30300057D01*
X128642856Y-30300057D02*
X128738094Y-30442914D01*
X128738094Y-30442914D02*
X128785713Y-30633390D01*
X128785713Y-30633390D02*
X128785713Y-31014342D01*
X128785713Y-31014342D02*
X128738094Y-31109580D01*
X128738094Y-31109580D02*
X128690475Y-31157200D01*
X128690475Y-31157200D02*
X128595237Y-31204819D01*
X128595237Y-31204819D02*
X128404761Y-31204819D01*
X128404761Y-31204819D02*
X128309523Y-31157200D01*
X128309523Y-31157200D02*
X128261904Y-31109580D01*
X128261904Y-31109580D02*
X128214285Y-31014342D01*
X128214285Y-31014342D02*
X128214285Y-30776247D01*
X128214285Y-30776247D02*
X128261904Y-30681009D01*
X128261904Y-30681009D02*
X128309523Y-30633390D01*
X128309523Y-30633390D02*
X128404761Y-30585771D01*
X128404761Y-30585771D02*
X128595237Y-30585771D01*
X128595237Y-30585771D02*
X128690475Y-30633390D01*
X128690475Y-30633390D02*
X128738094Y-30681009D01*
X128738094Y-30681009D02*
X128785713Y-30776247D01*
X130749999Y-17834819D02*
X130749999Y-16834819D01*
X130083333Y-16834819D02*
X129892857Y-16834819D01*
X129892857Y-16834819D02*
X129797619Y-16882438D01*
X129797619Y-16882438D02*
X129702381Y-16977676D01*
X129702381Y-16977676D02*
X129654762Y-17168152D01*
X129654762Y-17168152D02*
X129654762Y-17501485D01*
X129654762Y-17501485D02*
X129702381Y-17691961D01*
X129702381Y-17691961D02*
X129797619Y-17787200D01*
X129797619Y-17787200D02*
X129892857Y-17834819D01*
X129892857Y-17834819D02*
X130083333Y-17834819D01*
X130083333Y-17834819D02*
X130178571Y-17787200D01*
X130178571Y-17787200D02*
X130273809Y-17691961D01*
X130273809Y-17691961D02*
X130321428Y-17501485D01*
X130321428Y-17501485D02*
X130321428Y-17168152D01*
X130321428Y-17168152D02*
X130273809Y-16977676D01*
X130273809Y-16977676D02*
X130178571Y-16882438D01*
X130178571Y-16882438D02*
X130083333Y-16834819D01*
X128702381Y-17834819D02*
X129273809Y-17834819D01*
X128988095Y-17834819D02*
X128988095Y-16834819D01*
X128988095Y-16834819D02*
X129083333Y-16977676D01*
X129083333Y-16977676D02*
X129178571Y-17072914D01*
X129178571Y-17072914D02*
X129273809Y-17120533D01*
X138109580Y-45083333D02*
X138157200Y-45035714D01*
X138157200Y-45035714D02*
X138204819Y-44892857D01*
X138204819Y-44892857D02*
X138204819Y-44797619D01*
X138204819Y-44797619D02*
X138157200Y-44654762D01*
X138157200Y-44654762D02*
X138061961Y-44559524D01*
X138061961Y-44559524D02*
X137966723Y-44511905D01*
X137966723Y-44511905D02*
X137776247Y-44464286D01*
X137776247Y-44464286D02*
X137633390Y-44464286D01*
X137633390Y-44464286D02*
X137442914Y-44511905D01*
X137442914Y-44511905D02*
X137347676Y-44559524D01*
X137347676Y-44559524D02*
X137252438Y-44654762D01*
X137252438Y-44654762D02*
X137204819Y-44797619D01*
X137204819Y-44797619D02*
X137204819Y-44892857D01*
X137204819Y-44892857D02*
X137252438Y-45035714D01*
X137252438Y-45035714D02*
X137300057Y-45083333D01*
X138204819Y-45559524D02*
X138204819Y-45750000D01*
X138204819Y-45750000D02*
X138157200Y-45845238D01*
X138157200Y-45845238D02*
X138109580Y-45892857D01*
X138109580Y-45892857D02*
X137966723Y-45988095D01*
X137966723Y-45988095D02*
X137776247Y-46035714D01*
X137776247Y-46035714D02*
X137395295Y-46035714D01*
X137395295Y-46035714D02*
X137300057Y-45988095D01*
X137300057Y-45988095D02*
X137252438Y-45940476D01*
X137252438Y-45940476D02*
X137204819Y-45845238D01*
X137204819Y-45845238D02*
X137204819Y-45654762D01*
X137204819Y-45654762D02*
X137252438Y-45559524D01*
X137252438Y-45559524D02*
X137300057Y-45511905D01*
X137300057Y-45511905D02*
X137395295Y-45464286D01*
X137395295Y-45464286D02*
X137633390Y-45464286D01*
X137633390Y-45464286D02*
X137728628Y-45511905D01*
X137728628Y-45511905D02*
X137776247Y-45559524D01*
X137776247Y-45559524D02*
X137823866Y-45654762D01*
X137823866Y-45654762D02*
X137823866Y-45845238D01*
X137823866Y-45845238D02*
X137776247Y-45940476D01*
X137776247Y-45940476D02*
X137728628Y-45988095D01*
X137728628Y-45988095D02*
X137633390Y-46035714D01*
X136704819Y-45083333D02*
X136228628Y-44750000D01*
X136704819Y-44511905D02*
X135704819Y-44511905D01*
X135704819Y-44511905D02*
X135704819Y-44892857D01*
X135704819Y-44892857D02*
X135752438Y-44988095D01*
X135752438Y-44988095D02*
X135800057Y-45035714D01*
X135800057Y-45035714D02*
X135895295Y-45083333D01*
X135895295Y-45083333D02*
X136038152Y-45083333D01*
X136038152Y-45083333D02*
X136133390Y-45035714D01*
X136133390Y-45035714D02*
X136181009Y-44988095D01*
X136181009Y-44988095D02*
X136228628Y-44892857D01*
X136228628Y-44892857D02*
X136228628Y-44511905D01*
X136038152Y-45940476D02*
X136704819Y-45940476D01*
X135657200Y-45702381D02*
X136371485Y-45464286D01*
X136371485Y-45464286D02*
X136371485Y-46083333D01*
X132166666Y-22854819D02*
X132499999Y-22378628D01*
X132738094Y-22854819D02*
X132738094Y-21854819D01*
X132738094Y-21854819D02*
X132357142Y-21854819D01*
X132357142Y-21854819D02*
X132261904Y-21902438D01*
X132261904Y-21902438D02*
X132214285Y-21950057D01*
X132214285Y-21950057D02*
X132166666Y-22045295D01*
X132166666Y-22045295D02*
X132166666Y-22188152D01*
X132166666Y-22188152D02*
X132214285Y-22283390D01*
X132214285Y-22283390D02*
X132261904Y-22331009D01*
X132261904Y-22331009D02*
X132357142Y-22378628D01*
X132357142Y-22378628D02*
X132738094Y-22378628D01*
X131214285Y-22854819D02*
X131785713Y-22854819D01*
X131499999Y-22854819D02*
X131499999Y-21854819D01*
X131499999Y-21854819D02*
X131595237Y-21997676D01*
X131595237Y-21997676D02*
X131690475Y-22092914D01*
X131690475Y-22092914D02*
X131785713Y-22140533D01*
X138366666Y-29799580D02*
X138414285Y-29847200D01*
X138414285Y-29847200D02*
X138557142Y-29894819D01*
X138557142Y-29894819D02*
X138652380Y-29894819D01*
X138652380Y-29894819D02*
X138795237Y-29847200D01*
X138795237Y-29847200D02*
X138890475Y-29751961D01*
X138890475Y-29751961D02*
X138938094Y-29656723D01*
X138938094Y-29656723D02*
X138985713Y-29466247D01*
X138985713Y-29466247D02*
X138985713Y-29323390D01*
X138985713Y-29323390D02*
X138938094Y-29132914D01*
X138938094Y-29132914D02*
X138890475Y-29037676D01*
X138890475Y-29037676D02*
X138795237Y-28942438D01*
X138795237Y-28942438D02*
X138652380Y-28894819D01*
X138652380Y-28894819D02*
X138557142Y-28894819D01*
X138557142Y-28894819D02*
X138414285Y-28942438D01*
X138414285Y-28942438D02*
X138366666Y-28990057D01*
X137509523Y-29228152D02*
X137509523Y-29894819D01*
X137747618Y-28847200D02*
X137985713Y-29561485D01*
X137985713Y-29561485D02*
X137366666Y-29561485D01*
X142857142Y-56181009D02*
X142714285Y-56228628D01*
X142714285Y-56228628D02*
X142666666Y-56276247D01*
X142666666Y-56276247D02*
X142619047Y-56371485D01*
X142619047Y-56371485D02*
X142619047Y-56514342D01*
X142619047Y-56514342D02*
X142666666Y-56609580D01*
X142666666Y-56609580D02*
X142714285Y-56657200D01*
X142714285Y-56657200D02*
X142809523Y-56704819D01*
X142809523Y-56704819D02*
X143190475Y-56704819D01*
X143190475Y-56704819D02*
X143190475Y-55704819D01*
X143190475Y-55704819D02*
X142857142Y-55704819D01*
X142857142Y-55704819D02*
X142761904Y-55752438D01*
X142761904Y-55752438D02*
X142714285Y-55800057D01*
X142714285Y-55800057D02*
X142666666Y-55895295D01*
X142666666Y-55895295D02*
X142666666Y-55990533D01*
X142666666Y-55990533D02*
X142714285Y-56085771D01*
X142714285Y-56085771D02*
X142761904Y-56133390D01*
X142761904Y-56133390D02*
X142857142Y-56181009D01*
X142857142Y-56181009D02*
X143190475Y-56181009D01*
X141999999Y-55704819D02*
X141809523Y-55704819D01*
X141809523Y-55704819D02*
X141714285Y-55752438D01*
X141714285Y-55752438D02*
X141619047Y-55847676D01*
X141619047Y-55847676D02*
X141571428Y-56038152D01*
X141571428Y-56038152D02*
X141571428Y-56371485D01*
X141571428Y-56371485D02*
X141619047Y-56561961D01*
X141619047Y-56561961D02*
X141714285Y-56657200D01*
X141714285Y-56657200D02*
X141809523Y-56704819D01*
X141809523Y-56704819D02*
X141999999Y-56704819D01*
X141999999Y-56704819D02*
X142095237Y-56657200D01*
X142095237Y-56657200D02*
X142190475Y-56561961D01*
X142190475Y-56561961D02*
X142238094Y-56371485D01*
X142238094Y-56371485D02*
X142238094Y-56038152D01*
X142238094Y-56038152D02*
X142190475Y-55847676D01*
X142190475Y-55847676D02*
X142095237Y-55752438D01*
X142095237Y-55752438D02*
X141999999Y-55704819D01*
X140952380Y-55704819D02*
X140761904Y-55704819D01*
X140761904Y-55704819D02*
X140666666Y-55752438D01*
X140666666Y-55752438D02*
X140571428Y-55847676D01*
X140571428Y-55847676D02*
X140523809Y-56038152D01*
X140523809Y-56038152D02*
X140523809Y-56371485D01*
X140523809Y-56371485D02*
X140571428Y-56561961D01*
X140571428Y-56561961D02*
X140666666Y-56657200D01*
X140666666Y-56657200D02*
X140761904Y-56704819D01*
X140761904Y-56704819D02*
X140952380Y-56704819D01*
X140952380Y-56704819D02*
X141047618Y-56657200D01*
X141047618Y-56657200D02*
X141142856Y-56561961D01*
X141142856Y-56561961D02*
X141190475Y-56371485D01*
X141190475Y-56371485D02*
X141190475Y-56038152D01*
X141190475Y-56038152D02*
X141142856Y-55847676D01*
X141142856Y-55847676D02*
X141047618Y-55752438D01*
X141047618Y-55752438D02*
X140952380Y-55704819D01*
X140238094Y-55704819D02*
X139666666Y-55704819D01*
X139952380Y-56704819D02*
X139952380Y-55704819D01*
X144416666Y-32609580D02*
X144464285Y-32657200D01*
X144464285Y-32657200D02*
X144607142Y-32704819D01*
X144607142Y-32704819D02*
X144702380Y-32704819D01*
X144702380Y-32704819D02*
X144845237Y-32657200D01*
X144845237Y-32657200D02*
X144940475Y-32561961D01*
X144940475Y-32561961D02*
X144988094Y-32466723D01*
X144988094Y-32466723D02*
X145035713Y-32276247D01*
X145035713Y-32276247D02*
X145035713Y-32133390D01*
X145035713Y-32133390D02*
X144988094Y-31942914D01*
X144988094Y-31942914D02*
X144940475Y-31847676D01*
X144940475Y-31847676D02*
X144845237Y-31752438D01*
X144845237Y-31752438D02*
X144702380Y-31704819D01*
X144702380Y-31704819D02*
X144607142Y-31704819D01*
X144607142Y-31704819D02*
X144464285Y-31752438D01*
X144464285Y-31752438D02*
X144416666Y-31800057D01*
X144083332Y-31704819D02*
X143464285Y-31704819D01*
X143464285Y-31704819D02*
X143797618Y-32085771D01*
X143797618Y-32085771D02*
X143654761Y-32085771D01*
X143654761Y-32085771D02*
X143559523Y-32133390D01*
X143559523Y-32133390D02*
X143511904Y-32181009D01*
X143511904Y-32181009D02*
X143464285Y-32276247D01*
X143464285Y-32276247D02*
X143464285Y-32514342D01*
X143464285Y-32514342D02*
X143511904Y-32609580D01*
X143511904Y-32609580D02*
X143559523Y-32657200D01*
X143559523Y-32657200D02*
X143654761Y-32704819D01*
X143654761Y-32704819D02*
X143940475Y-32704819D01*
X143940475Y-32704819D02*
X144035713Y-32657200D01*
X144035713Y-32657200D02*
X144083332Y-32609580D01*
%TO.C,D12*%
X256700000Y-25500000D02*
X256700000Y-20100000D01*
X258200000Y-25500000D02*
X256700000Y-25500000D01*
X257950000Y-23300000D02*
X256950000Y-23300000D01*
X257450000Y-23200000D02*
X257950000Y-22300000D01*
X256950000Y-22300000D02*
X257450000Y-23200000D01*
X257950000Y-22300000D02*
X256950000Y-22300000D01*
X258200000Y-20100000D02*
X258200000Y-25500000D01*
X258200000Y-20100000D02*
X256700000Y-20100000D01*
%TO.C,D8*%
X180700000Y-25500000D02*
X180700000Y-20100000D01*
X182200000Y-25500000D02*
X180700000Y-25500000D01*
X181950000Y-23300000D02*
X180950000Y-23300000D01*
X181450000Y-23200000D02*
X181950000Y-22300000D01*
X180950000Y-22300000D02*
X181450000Y-23200000D01*
X181950000Y-22300000D02*
X180950000Y-22300000D01*
X182200000Y-20100000D02*
X182200000Y-25500000D01*
X182200000Y-20100000D02*
X180700000Y-20100000D01*
%TO.C,D44*%
X180700000Y-82500000D02*
X180700000Y-77100000D01*
X182200000Y-82500000D02*
X180700000Y-82500000D01*
X181950000Y-80300000D02*
X180950000Y-80300000D01*
X181450000Y-80200000D02*
X181950000Y-79300000D01*
X180950000Y-79300000D02*
X181450000Y-80200000D01*
X181950000Y-79300000D02*
X180950000Y-79300000D01*
X182200000Y-77100000D02*
X182200000Y-82500000D01*
X182200000Y-77100000D02*
X180700000Y-77100000D01*
%TO.C,D40*%
X85700000Y-82500000D02*
X85700000Y-77100000D01*
X87200000Y-82500000D02*
X85700000Y-82500000D01*
X86950000Y-80300000D02*
X85950000Y-80300000D01*
X86450000Y-80200000D02*
X86950000Y-79300000D01*
X85950000Y-79300000D02*
X86450000Y-80200000D01*
X86950000Y-79300000D02*
X85950000Y-79300000D01*
X87200000Y-77100000D02*
X87200000Y-82500000D01*
X87200000Y-77100000D02*
X85700000Y-77100000D01*
%TO.C,D27*%
X66700000Y-63500000D02*
X66700000Y-58100000D01*
X68200000Y-63500000D02*
X66700000Y-63500000D01*
X67950000Y-61300000D02*
X66950000Y-61300000D01*
X67450000Y-61200000D02*
X67950000Y-60300000D01*
X66950000Y-60300000D02*
X67450000Y-61200000D01*
X67950000Y-60300000D02*
X66950000Y-60300000D01*
X68200000Y-58100000D02*
X68200000Y-63500000D01*
X68200000Y-58100000D02*
X66700000Y-58100000D01*
%TO.C,D19*%
X161700000Y-44500000D02*
X161700000Y-39100000D01*
X163200000Y-44500000D02*
X161700000Y-44500000D01*
X162950000Y-42300000D02*
X161950000Y-42300000D01*
X162450000Y-42200000D02*
X162950000Y-41300000D01*
X161950000Y-41300000D02*
X162450000Y-42200000D01*
X162950000Y-41300000D02*
X161950000Y-41300000D01*
X163200000Y-39100000D02*
X163200000Y-44500000D01*
X163200000Y-39100000D02*
X161700000Y-39100000D01*
%TO.C,D32*%
X180700000Y-63500000D02*
X180700000Y-58100000D01*
X182200000Y-63500000D02*
X180700000Y-63500000D01*
X181950000Y-61300000D02*
X180950000Y-61300000D01*
X181450000Y-61200000D02*
X181950000Y-60300000D01*
X180950000Y-60300000D02*
X181450000Y-61200000D01*
X181950000Y-60300000D02*
X180950000Y-60300000D01*
X182200000Y-58100000D02*
X182200000Y-63500000D01*
X182200000Y-58100000D02*
X180700000Y-58100000D01*
D11*
%TO.C,F1*%
X143310000Y-22597936D02*
X143310000Y-23802064D01*
X141490000Y-22597936D02*
X141490000Y-23802064D01*
%TO.C,U3*%
X140840000Y-28200000D02*
X140840000Y-29000000D01*
X140840000Y-28200000D02*
X140840000Y-27400000D01*
X143960000Y-28200000D02*
X143960000Y-30000000D01*
X143960000Y-28200000D02*
X143960000Y-27400000D01*
%TO.C,R2*%
X138580000Y-22171359D02*
X138580000Y-22478641D01*
X137820000Y-22171359D02*
X137820000Y-22478641D01*
%TO.C,C8*%
X138640000Y-43307836D02*
X138640000Y-43092164D01*
X139360000Y-43307836D02*
X139360000Y-43092164D01*
D10*
%TO.C,D4*%
X85700000Y-25500000D02*
X85700000Y-20100000D01*
X87200000Y-25500000D02*
X85700000Y-25500000D01*
X86950000Y-23300000D02*
X85950000Y-23300000D01*
X86450000Y-23200000D02*
X86950000Y-22300000D01*
X85950000Y-22300000D02*
X86450000Y-23200000D01*
X86950000Y-22300000D02*
X85950000Y-22300000D01*
X87200000Y-20100000D02*
X87200000Y-25500000D01*
X87200000Y-20100000D02*
X85700000Y-20100000D01*
%TO.C,D38*%
X47700000Y-82500000D02*
X47700000Y-77100000D01*
X49200000Y-82500000D02*
X47700000Y-82500000D01*
X48950000Y-80300000D02*
X47950000Y-80300000D01*
X48450000Y-80200000D02*
X48950000Y-79300000D01*
X47950000Y-79300000D02*
X48450000Y-80200000D01*
X48950000Y-79300000D02*
X47950000Y-79300000D01*
X49200000Y-77100000D02*
X49200000Y-82500000D01*
X49200000Y-77100000D02*
X47700000Y-77100000D01*
%TO.C,D3*%
X66700000Y-25500000D02*
X66700000Y-20100000D01*
X68200000Y-25500000D02*
X66700000Y-25500000D01*
X67950000Y-23300000D02*
X66950000Y-23300000D01*
X67450000Y-23200000D02*
X67950000Y-22300000D01*
X66950000Y-22300000D02*
X67450000Y-23200000D01*
X67950000Y-22300000D02*
X66950000Y-22300000D01*
X68200000Y-20100000D02*
X68200000Y-25500000D01*
X68200000Y-20100000D02*
X66700000Y-20100000D01*
%TO.C,D52*%
X85700000Y-101500000D02*
X85700000Y-96100000D01*
X87200000Y-101500000D02*
X85700000Y-101500000D01*
X86950000Y-99300000D02*
X85950000Y-99300000D01*
X86450000Y-99200000D02*
X86950000Y-98300000D01*
X85950000Y-98300000D02*
X86450000Y-99200000D01*
X86950000Y-98300000D02*
X85950000Y-98300000D01*
X87200000Y-96100000D02*
X87200000Y-101500000D01*
X87200000Y-96100000D02*
X85700000Y-96100000D01*
%TO.C,D2*%
X47700000Y-25500000D02*
X47700000Y-20100000D01*
X49200000Y-25500000D02*
X47700000Y-25500000D01*
X48950000Y-23300000D02*
X47950000Y-23300000D01*
X48450000Y-23200000D02*
X48950000Y-22300000D01*
X47950000Y-22300000D02*
X48450000Y-23200000D01*
X48950000Y-22300000D02*
X47950000Y-22300000D01*
X49200000Y-20100000D02*
X49200000Y-25500000D01*
X49200000Y-20100000D02*
X47700000Y-20100000D01*
D11*
%TO.C,R3*%
X141780000Y-43046359D02*
X141780000Y-43353641D01*
X141020000Y-43046359D02*
X141020000Y-43353641D01*
D10*
%TO.C,D18*%
X123700000Y-44500000D02*
X123700000Y-39100000D01*
X125200000Y-44500000D02*
X123700000Y-44500000D01*
X124950000Y-42300000D02*
X123950000Y-42300000D01*
X124450000Y-42200000D02*
X124950000Y-41300000D01*
X123950000Y-41300000D02*
X124450000Y-42200000D01*
X124950000Y-41300000D02*
X123950000Y-41300000D01*
X125200000Y-39100000D02*
X125200000Y-44500000D01*
X125200000Y-39100000D02*
X123700000Y-39100000D01*
%TO.C,D45*%
X199700000Y-82500000D02*
X199700000Y-77100000D01*
X201200000Y-82500000D02*
X199700000Y-82500000D01*
X200950000Y-80300000D02*
X199950000Y-80300000D01*
X200450000Y-80200000D02*
X200950000Y-79300000D01*
X199950000Y-79300000D02*
X200450000Y-80200000D01*
X200950000Y-79300000D02*
X199950000Y-79300000D01*
X201200000Y-77100000D02*
X201200000Y-82500000D01*
X201200000Y-77100000D02*
X199700000Y-77100000D01*
%TO.C,D58*%
X275700000Y-82500000D02*
X275700000Y-77100000D01*
X277200000Y-82500000D02*
X275700000Y-82500000D01*
X276950000Y-80300000D02*
X275950000Y-80300000D01*
X276450000Y-80200000D02*
X276950000Y-79300000D01*
X275950000Y-79300000D02*
X276450000Y-80200000D01*
X276950000Y-79300000D02*
X275950000Y-79300000D01*
X277200000Y-77100000D02*
X277200000Y-82500000D01*
X277200000Y-77100000D02*
X275700000Y-77100000D01*
%TO.C,D6*%
X123700000Y-25500000D02*
X123700000Y-20100000D01*
X125200000Y-25500000D02*
X123700000Y-25500000D01*
X124950000Y-23300000D02*
X123950000Y-23300000D01*
X124450000Y-23200000D02*
X124950000Y-22300000D01*
X123950000Y-22300000D02*
X124450000Y-23200000D01*
X124950000Y-22300000D02*
X123950000Y-22300000D01*
X125200000Y-20100000D02*
X125200000Y-25500000D01*
X125200000Y-20100000D02*
X123700000Y-20100000D01*
%TO.C,D59*%
X275700000Y-63500000D02*
X275700000Y-58100000D01*
X277200000Y-63500000D02*
X275700000Y-63500000D01*
X276950000Y-61300000D02*
X275950000Y-61300000D01*
X276450000Y-61200000D02*
X276950000Y-60300000D01*
X275950000Y-60300000D02*
X276450000Y-61200000D01*
X276950000Y-60300000D02*
X275950000Y-60300000D01*
X277200000Y-58100000D02*
X277200000Y-63500000D01*
X277200000Y-58100000D02*
X275700000Y-58100000D01*
%TO.C,D37*%
X28700000Y-82500000D02*
X28700000Y-77100000D01*
X30200000Y-82500000D02*
X28700000Y-82500000D01*
X29950000Y-80300000D02*
X28950000Y-80300000D01*
X29450000Y-80200000D02*
X29950000Y-79300000D01*
X28950000Y-79300000D02*
X29450000Y-80200000D01*
X29950000Y-79300000D02*
X28950000Y-79300000D01*
X30200000Y-77100000D02*
X30200000Y-82500000D01*
X30200000Y-77100000D02*
X28700000Y-77100000D01*
%TO.C,D43*%
X161700000Y-82500000D02*
X161700000Y-77100000D01*
X163200000Y-82500000D02*
X161700000Y-82500000D01*
X162950000Y-80300000D02*
X161950000Y-80300000D01*
X162450000Y-80200000D02*
X162950000Y-79300000D01*
X161950000Y-79300000D02*
X162450000Y-80200000D01*
X162950000Y-79300000D02*
X161950000Y-79300000D01*
X163200000Y-77100000D02*
X163200000Y-82500000D01*
X163200000Y-77100000D02*
X161700000Y-77100000D01*
%TO.C,D50*%
X9700000Y-63500000D02*
X9700000Y-58100000D01*
X11200000Y-63500000D02*
X9700000Y-63500000D01*
X10950000Y-61300000D02*
X9950000Y-61300000D01*
X10450000Y-61200000D02*
X10950000Y-60300000D01*
X9950000Y-60300000D02*
X10450000Y-61200000D01*
X10950000Y-60300000D02*
X9950000Y-60300000D01*
X11200000Y-58100000D02*
X11200000Y-63500000D01*
X11200000Y-58100000D02*
X9700000Y-58100000D01*
%TO.C,D1*%
X28700000Y-25500000D02*
X28700000Y-20100000D01*
X30200000Y-25500000D02*
X28700000Y-25500000D01*
X29950000Y-23300000D02*
X28950000Y-23300000D01*
X29450000Y-23200000D02*
X29950000Y-22300000D01*
X28950000Y-22300000D02*
X29450000Y-23200000D01*
X29950000Y-22300000D02*
X28950000Y-22300000D01*
X30200000Y-20100000D02*
X30200000Y-25500000D01*
X30200000Y-20100000D02*
X28700000Y-20100000D01*
%TO.C,D53*%
X104700000Y-101500000D02*
X104700000Y-96100000D01*
X106200000Y-101500000D02*
X104700000Y-101500000D01*
X105950000Y-99300000D02*
X104950000Y-99300000D01*
X105450000Y-99200000D02*
X105950000Y-98300000D01*
X104950000Y-98300000D02*
X105450000Y-99200000D01*
X105950000Y-98300000D02*
X104950000Y-98300000D01*
X106200000Y-96100000D02*
X106200000Y-101500000D01*
X106200000Y-96100000D02*
X104700000Y-96100000D01*
%TO.C,D48*%
X256700000Y-82500000D02*
X256700000Y-77100000D01*
X258200000Y-82500000D02*
X256700000Y-82500000D01*
X257950000Y-80300000D02*
X256950000Y-80300000D01*
X257450000Y-80200000D02*
X257950000Y-79300000D01*
X256950000Y-79300000D02*
X257450000Y-80200000D01*
X257950000Y-79300000D02*
X256950000Y-79300000D01*
X258200000Y-77100000D02*
X258200000Y-82500000D01*
X258200000Y-77100000D02*
X256700000Y-77100000D01*
%TO.C,D60*%
X275700000Y-44500000D02*
X275700000Y-39100000D01*
X277200000Y-44500000D02*
X275700000Y-44500000D01*
X276950000Y-42300000D02*
X275950000Y-42300000D01*
X276450000Y-42200000D02*
X276950000Y-41300000D01*
X275950000Y-41300000D02*
X276450000Y-42200000D01*
X276950000Y-41300000D02*
X275950000Y-41300000D01*
X277200000Y-39100000D02*
X277200000Y-44500000D01*
X277200000Y-39100000D02*
X275700000Y-39100000D01*
%TO.C,D33*%
X199700000Y-63500000D02*
X199700000Y-58100000D01*
X201200000Y-63500000D02*
X199700000Y-63500000D01*
X200950000Y-61300000D02*
X199950000Y-61300000D01*
X200450000Y-61200000D02*
X200950000Y-60300000D01*
X199950000Y-60300000D02*
X200450000Y-61200000D01*
X200950000Y-60300000D02*
X199950000Y-60300000D01*
X201200000Y-58100000D02*
X201200000Y-63500000D01*
X201200000Y-58100000D02*
X199700000Y-58100000D01*
%TO.C,D39*%
X66700000Y-82500000D02*
X66700000Y-77100000D01*
X68200000Y-82500000D02*
X66700000Y-82500000D01*
X67950000Y-80300000D02*
X66950000Y-80300000D01*
X67450000Y-80200000D02*
X67950000Y-79300000D01*
X66950000Y-79300000D02*
X67450000Y-80200000D01*
X67950000Y-79300000D02*
X66950000Y-79300000D01*
X68200000Y-77100000D02*
X68200000Y-82500000D01*
X68200000Y-77100000D02*
X66700000Y-77100000D01*
%TO.C,D46*%
X218700000Y-82500000D02*
X218700000Y-77100000D01*
X220200000Y-82500000D02*
X218700000Y-82500000D01*
X219950000Y-80300000D02*
X218950000Y-80300000D01*
X219450000Y-80200000D02*
X219950000Y-79300000D01*
X218950000Y-79300000D02*
X219450000Y-80200000D01*
X219950000Y-79300000D02*
X218950000Y-79300000D01*
X220200000Y-77100000D02*
X220200000Y-82500000D01*
X220200000Y-77100000D02*
X218700000Y-77100000D01*
D11*
%TO.C,U1*%
X131790000Y-40010000D02*
X132240000Y-40010000D01*
X138560000Y-40010000D02*
X138560000Y-41300000D01*
X139010000Y-40010000D02*
X138560000Y-40010000D01*
X131790000Y-39560000D02*
X131790000Y-40010000D01*
X139010000Y-39560000D02*
X139010000Y-40010000D01*
X131790000Y-33240000D02*
X131790000Y-32790000D01*
X139010000Y-33240000D02*
X139010000Y-32790000D01*
X131790000Y-32790000D02*
X132240000Y-32790000D01*
X139010000Y-32790000D02*
X138560000Y-32790000D01*
D10*
%TO.C,D26*%
X47700000Y-63500000D02*
X47700000Y-58100000D01*
X49200000Y-63500000D02*
X47700000Y-63500000D01*
X48950000Y-61300000D02*
X47950000Y-61300000D01*
X48450000Y-61200000D02*
X48950000Y-60300000D01*
X47950000Y-60300000D02*
X48450000Y-61200000D01*
X48950000Y-60300000D02*
X47950000Y-60300000D01*
X49200000Y-58100000D02*
X49200000Y-63500000D01*
X49200000Y-58100000D02*
X47700000Y-58100000D01*
%TO.C,D23*%
X237700000Y-44500000D02*
X237700000Y-39100000D01*
X239200000Y-44500000D02*
X237700000Y-44500000D01*
X238950000Y-42300000D02*
X237950000Y-42300000D01*
X238450000Y-42200000D02*
X238950000Y-41300000D01*
X237950000Y-41300000D02*
X238450000Y-42200000D01*
X238950000Y-41300000D02*
X237950000Y-41300000D01*
X239200000Y-39100000D02*
X239200000Y-44500000D01*
X239200000Y-39100000D02*
X237700000Y-39100000D01*
D11*
%TO.C,C2*%
X142292164Y-30640000D02*
X142507836Y-30640000D01*
X142292164Y-31360000D02*
X142507836Y-31360000D01*
%TO.C,U2*%
X134290000Y-24700000D02*
X134290000Y-25500000D01*
X134290000Y-24700000D02*
X134290000Y-23900000D01*
X137410000Y-24700000D02*
X137410000Y-26500000D01*
X137410000Y-24700000D02*
X137410000Y-23900000D01*
D10*
%TO.C,D15*%
X66700000Y-44500000D02*
X66700000Y-39100000D01*
X68200000Y-44500000D02*
X66700000Y-44500000D01*
X67950000Y-42300000D02*
X66950000Y-42300000D01*
X67450000Y-42200000D02*
X67950000Y-41300000D01*
X66950000Y-41300000D02*
X67450000Y-42200000D01*
X67950000Y-41300000D02*
X66950000Y-41300000D01*
X68200000Y-39100000D02*
X68200000Y-44500000D01*
X68200000Y-39100000D02*
X66700000Y-39100000D01*
%TO.C,D7*%
X161700000Y-25500000D02*
X161700000Y-20100000D01*
X163200000Y-25500000D02*
X161700000Y-25500000D01*
X162950000Y-23300000D02*
X161950000Y-23300000D01*
X162450000Y-23200000D02*
X162950000Y-22300000D01*
X161950000Y-22300000D02*
X162450000Y-23200000D01*
X162950000Y-22300000D02*
X161950000Y-22300000D01*
X163200000Y-20100000D02*
X163200000Y-25500000D01*
X163200000Y-20100000D02*
X161700000Y-20100000D01*
D11*
%TO.C,C7*%
X131107836Y-32160000D02*
X130892164Y-32160000D01*
X131107836Y-31440000D02*
X130892164Y-31440000D01*
%TO.C,C1*%
X140307836Y-25760000D02*
X140092164Y-25760000D01*
X140307836Y-25040000D02*
X140092164Y-25040000D01*
D10*
%TO.C,D30*%
X123700000Y-63500000D02*
X123700000Y-58100000D01*
X125200000Y-63500000D02*
X123700000Y-63500000D01*
X124950000Y-61300000D02*
X123950000Y-61300000D01*
X124450000Y-61200000D02*
X124950000Y-60300000D01*
X123950000Y-60300000D02*
X124450000Y-61200000D01*
X124950000Y-60300000D02*
X123950000Y-60300000D01*
X125200000Y-58100000D02*
X125200000Y-63500000D01*
X125200000Y-58100000D02*
X123700000Y-58100000D01*
%TO.C,D20*%
X180700000Y-44500000D02*
X180700000Y-39100000D01*
X182200000Y-44500000D02*
X180700000Y-44500000D01*
X181950000Y-42300000D02*
X180950000Y-42300000D01*
X181450000Y-42200000D02*
X181950000Y-41300000D01*
X180950000Y-41300000D02*
X181450000Y-42200000D01*
X181950000Y-41300000D02*
X180950000Y-41300000D01*
X182200000Y-39100000D02*
X182200000Y-44500000D01*
X182200000Y-39100000D02*
X180700000Y-39100000D01*
D11*
%TO.C,C5*%
X134040000Y-43307836D02*
X134040000Y-43092164D01*
X134760000Y-43307836D02*
X134760000Y-43092164D01*
%TO.C,C6*%
X131107836Y-31160000D02*
X130892164Y-31160000D01*
X131107836Y-30440000D02*
X130892164Y-30440000D01*
D10*
%TO.C,D22*%
X218700000Y-44500000D02*
X218700000Y-39100000D01*
X220200000Y-44500000D02*
X218700000Y-44500000D01*
X219950000Y-42300000D02*
X218950000Y-42300000D01*
X219450000Y-42200000D02*
X219950000Y-41300000D01*
X218950000Y-41300000D02*
X219450000Y-42200000D01*
X219950000Y-41300000D02*
X218950000Y-41300000D01*
X220200000Y-39100000D02*
X220200000Y-44500000D01*
X220200000Y-39100000D02*
X218700000Y-39100000D01*
D11*
%TO.C,C9*%
X137390000Y-43307836D02*
X137390000Y-43092164D01*
X138110000Y-43307836D02*
X138110000Y-43092164D01*
%TO.C,R4*%
X135820000Y-43353641D02*
X135820000Y-43046359D01*
X136580000Y-43353641D02*
X136580000Y-43046359D01*
D10*
%TO.C,D34*%
X218700000Y-63500000D02*
X218700000Y-58100000D01*
X220200000Y-63500000D02*
X218700000Y-63500000D01*
X219950000Y-61300000D02*
X218950000Y-61300000D01*
X219450000Y-61200000D02*
X219950000Y-60300000D01*
X218950000Y-60300000D02*
X219450000Y-61200000D01*
X219950000Y-60300000D02*
X218950000Y-60300000D01*
X220200000Y-58100000D02*
X220200000Y-63500000D01*
X220200000Y-58100000D02*
X218700000Y-58100000D01*
%TO.C,D36*%
X256700000Y-63500000D02*
X256700000Y-58100000D01*
X258200000Y-63500000D02*
X256700000Y-63500000D01*
X257950000Y-61300000D02*
X256950000Y-61300000D01*
X257450000Y-61200000D02*
X257950000Y-60300000D01*
X256950000Y-60300000D02*
X257450000Y-61200000D01*
X257950000Y-60300000D02*
X256950000Y-60300000D01*
X258200000Y-58100000D02*
X258200000Y-63500000D01*
X258200000Y-58100000D02*
X256700000Y-58100000D01*
D11*
%TO.C,R1*%
X133980000Y-22246359D02*
X133980000Y-22553641D01*
X133220000Y-22246359D02*
X133220000Y-22553641D01*
D10*
%TO.C,D41*%
X104700000Y-82500000D02*
X104700000Y-77100000D01*
X106200000Y-82500000D02*
X104700000Y-82500000D01*
X105950000Y-80300000D02*
X104950000Y-80300000D01*
X105450000Y-80200000D02*
X105950000Y-79300000D01*
X104950000Y-79300000D02*
X105450000Y-80200000D01*
X105950000Y-79300000D02*
X104950000Y-79300000D01*
X106200000Y-77100000D02*
X106200000Y-82500000D01*
X106200000Y-77100000D02*
X104700000Y-77100000D01*
%TO.C,D49*%
X9700000Y-44500000D02*
X9700000Y-39100000D01*
X11200000Y-44500000D02*
X9700000Y-44500000D01*
X10950000Y-42300000D02*
X9950000Y-42300000D01*
X10450000Y-42200000D02*
X10950000Y-41300000D01*
X9950000Y-41300000D02*
X10450000Y-42200000D01*
X10950000Y-41300000D02*
X9950000Y-41300000D01*
X11200000Y-39100000D02*
X11200000Y-44500000D01*
X11200000Y-39100000D02*
X9700000Y-39100000D01*
%TO.C,D47*%
X237700000Y-82500000D02*
X237700000Y-77100000D01*
X239200000Y-82500000D02*
X237700000Y-82500000D01*
X238950000Y-80300000D02*
X237950000Y-80300000D01*
X238450000Y-80200000D02*
X238950000Y-79300000D01*
X237950000Y-79300000D02*
X238450000Y-80200000D01*
X238950000Y-79300000D02*
X237950000Y-79300000D01*
X239200000Y-77100000D02*
X239200000Y-82500000D01*
X239200000Y-77100000D02*
X237700000Y-77100000D01*
%TO.C,D42*%
X123700000Y-82500000D02*
X123700000Y-77100000D01*
X125200000Y-82500000D02*
X123700000Y-82500000D01*
X124950000Y-80300000D02*
X123950000Y-80300000D01*
X124450000Y-80200000D02*
X124950000Y-79300000D01*
X123950000Y-79300000D02*
X124450000Y-80200000D01*
X124950000Y-79300000D02*
X123950000Y-79300000D01*
X125200000Y-77100000D02*
X125200000Y-82500000D01*
X125200000Y-77100000D02*
X123700000Y-77100000D01*
%TO.C,D29*%
X104700000Y-63500000D02*
X104700000Y-58100000D01*
X106200000Y-63500000D02*
X104700000Y-63500000D01*
X105950000Y-61300000D02*
X104950000Y-61300000D01*
X105450000Y-61200000D02*
X105950000Y-60300000D01*
X104950000Y-60300000D02*
X105450000Y-61200000D01*
X105950000Y-60300000D02*
X104950000Y-60300000D01*
X106200000Y-58100000D02*
X106200000Y-63500000D01*
X106200000Y-58100000D02*
X104700000Y-58100000D01*
%TO.C,D5*%
X104700000Y-25500000D02*
X104700000Y-20100000D01*
X106200000Y-25500000D02*
X104700000Y-25500000D01*
X105950000Y-23300000D02*
X104950000Y-23300000D01*
X105450000Y-23200000D02*
X105950000Y-22300000D01*
X104950000Y-22300000D02*
X105450000Y-23200000D01*
X105950000Y-22300000D02*
X104950000Y-22300000D01*
X106200000Y-20100000D02*
X106200000Y-25500000D01*
X106200000Y-20100000D02*
X104700000Y-20100000D01*
%TO.C,D25*%
X28700000Y-63500000D02*
X28700000Y-58100000D01*
X30200000Y-63500000D02*
X28700000Y-63500000D01*
X29950000Y-61300000D02*
X28950000Y-61300000D01*
X29450000Y-61200000D02*
X29950000Y-60300000D01*
X28950000Y-60300000D02*
X29450000Y-61200000D01*
X29950000Y-60300000D02*
X28950000Y-60300000D01*
X30200000Y-58100000D02*
X30200000Y-63500000D01*
X30200000Y-58100000D02*
X28700000Y-58100000D01*
D11*
%TO.C,C4*%
X138307836Y-30960000D02*
X138092164Y-30960000D01*
X138307836Y-30240000D02*
X138092164Y-30240000D01*
D10*
%TO.C,D35*%
X237700000Y-63500000D02*
X237700000Y-58100000D01*
X239200000Y-63500000D02*
X237700000Y-63500000D01*
X238950000Y-61300000D02*
X237950000Y-61300000D01*
X238450000Y-61200000D02*
X238950000Y-60300000D01*
X237950000Y-60300000D02*
X238450000Y-61200000D01*
X238950000Y-60300000D02*
X237950000Y-60300000D01*
X239200000Y-58100000D02*
X239200000Y-63500000D01*
X239200000Y-58100000D02*
X237700000Y-58100000D01*
%TO.C,D28*%
X85700000Y-63500000D02*
X85700000Y-58100000D01*
X87200000Y-63500000D02*
X85700000Y-63500000D01*
X86950000Y-61300000D02*
X85950000Y-61300000D01*
X86450000Y-61200000D02*
X86950000Y-60300000D01*
X85950000Y-60300000D02*
X86450000Y-61200000D01*
X86950000Y-60300000D02*
X85950000Y-60300000D01*
X87200000Y-58100000D02*
X87200000Y-63500000D01*
X87200000Y-58100000D02*
X85700000Y-58100000D01*
%TO.C,D14*%
X47700000Y-44500000D02*
X47700000Y-39100000D01*
X49200000Y-44500000D02*
X47700000Y-44500000D01*
X48950000Y-42300000D02*
X47950000Y-42300000D01*
X48450000Y-42200000D02*
X48950000Y-41300000D01*
X47950000Y-41300000D02*
X48450000Y-42200000D01*
X48950000Y-41300000D02*
X47950000Y-41300000D01*
X49200000Y-39100000D02*
X49200000Y-44500000D01*
X49200000Y-39100000D02*
X47700000Y-39100000D01*
%TO.C,D51*%
X9700000Y-82500000D02*
X9700000Y-77100000D01*
X11200000Y-82500000D02*
X9700000Y-82500000D01*
X10950000Y-80300000D02*
X9950000Y-80300000D01*
X10450000Y-80200000D02*
X10950000Y-79300000D01*
X9950000Y-79300000D02*
X10450000Y-80200000D01*
X10950000Y-79300000D02*
X9950000Y-79300000D01*
X11200000Y-77100000D02*
X11200000Y-82500000D01*
X11200000Y-77100000D02*
X9700000Y-77100000D01*
%TO.C,D13*%
X28700000Y-44500000D02*
X28700000Y-39100000D01*
X30200000Y-44500000D02*
X28700000Y-44500000D01*
X29950000Y-42300000D02*
X28950000Y-42300000D01*
X29450000Y-42200000D02*
X29950000Y-41300000D01*
X28950000Y-41300000D02*
X29450000Y-42200000D01*
X29950000Y-41300000D02*
X28950000Y-41300000D01*
X30200000Y-39100000D02*
X30200000Y-44500000D01*
X30200000Y-39100000D02*
X28700000Y-39100000D01*
%TO.C,D21*%
X199700000Y-44500000D02*
X199700000Y-39100000D01*
X201200000Y-44500000D02*
X199700000Y-44500000D01*
X200950000Y-42300000D02*
X199950000Y-42300000D01*
X200450000Y-42200000D02*
X200950000Y-41300000D01*
X199950000Y-41300000D02*
X200450000Y-42200000D01*
X200950000Y-41300000D02*
X199950000Y-41300000D01*
X201200000Y-39100000D02*
X201200000Y-44500000D01*
X201200000Y-39100000D02*
X199700000Y-39100000D01*
%TO.C,D11*%
X237700000Y-25500000D02*
X237700000Y-20100000D01*
X239200000Y-25500000D02*
X237700000Y-25500000D01*
X238950000Y-23300000D02*
X237950000Y-23300000D01*
X238450000Y-23200000D02*
X238950000Y-22300000D01*
X237950000Y-22300000D02*
X238450000Y-23200000D01*
X238950000Y-22300000D02*
X237950000Y-22300000D01*
X239200000Y-20100000D02*
X239200000Y-25500000D01*
X239200000Y-20100000D02*
X237700000Y-20100000D01*
%TO.C,D9*%
X199700000Y-25500000D02*
X199700000Y-20100000D01*
X201200000Y-25500000D02*
X199700000Y-25500000D01*
X200950000Y-23300000D02*
X199950000Y-23300000D01*
X200450000Y-23200000D02*
X200950000Y-22300000D01*
X199950000Y-22300000D02*
X200450000Y-23200000D01*
X200950000Y-22300000D02*
X199950000Y-22300000D01*
X201200000Y-20100000D02*
X201200000Y-25500000D01*
X201200000Y-20100000D02*
X199700000Y-20100000D01*
%TO.C,D10*%
X218700000Y-25500000D02*
X218700000Y-20100000D01*
X220200000Y-25500000D02*
X218700000Y-25500000D01*
X219950000Y-23300000D02*
X218950000Y-23300000D01*
X219450000Y-23200000D02*
X219950000Y-22300000D01*
X218950000Y-22300000D02*
X219450000Y-23200000D01*
X219950000Y-22300000D02*
X218950000Y-22300000D01*
X220200000Y-20100000D02*
X220200000Y-25500000D01*
X220200000Y-20100000D02*
X218700000Y-20100000D01*
%TO.C,D54*%
X123700000Y-101500000D02*
X123700000Y-96100000D01*
X125200000Y-101500000D02*
X123700000Y-101500000D01*
X124950000Y-99300000D02*
X123950000Y-99300000D01*
X124450000Y-99200000D02*
X124950000Y-98300000D01*
X123950000Y-98300000D02*
X124450000Y-99200000D01*
X124950000Y-98300000D02*
X123950000Y-98300000D01*
X125200000Y-96100000D02*
X125200000Y-101500000D01*
X125200000Y-96100000D02*
X123700000Y-96100000D01*
%TO.C,D31*%
X161700000Y-63500000D02*
X161700000Y-58100000D01*
X163200000Y-63500000D02*
X161700000Y-63500000D01*
X162950000Y-61300000D02*
X161950000Y-61300000D01*
X162450000Y-61200000D02*
X162950000Y-60300000D01*
X161950000Y-60300000D02*
X162450000Y-61200000D01*
X162950000Y-60300000D02*
X161950000Y-60300000D01*
X163200000Y-58100000D02*
X163200000Y-63500000D01*
X163200000Y-58100000D02*
X161700000Y-58100000D01*
%TO.C,D55*%
X161700000Y-101500000D02*
X161700000Y-96100000D01*
X163200000Y-101500000D02*
X161700000Y-101500000D01*
X162950000Y-99300000D02*
X161950000Y-99300000D01*
X162450000Y-99200000D02*
X162950000Y-98300000D01*
X161950000Y-98300000D02*
X162450000Y-99200000D01*
X162950000Y-98300000D02*
X161950000Y-98300000D01*
X163200000Y-96100000D02*
X163200000Y-101500000D01*
X163200000Y-96100000D02*
X161700000Y-96100000D01*
%TO.C,D16*%
X85700000Y-44500000D02*
X85700000Y-39100000D01*
X87200000Y-44500000D02*
X85700000Y-44500000D01*
X86950000Y-42300000D02*
X85950000Y-42300000D01*
X86450000Y-42200000D02*
X86950000Y-41300000D01*
X85950000Y-41300000D02*
X86450000Y-42200000D01*
X86950000Y-41300000D02*
X85950000Y-41300000D01*
X87200000Y-39100000D02*
X87200000Y-44500000D01*
X87200000Y-39100000D02*
X85700000Y-39100000D01*
%TO.C,D56*%
X180700000Y-101500000D02*
X180700000Y-96100000D01*
X182200000Y-101500000D02*
X180700000Y-101500000D01*
X181950000Y-99300000D02*
X180950000Y-99300000D01*
X181450000Y-99200000D02*
X181950000Y-98300000D01*
X180950000Y-98300000D02*
X181450000Y-99200000D01*
X181950000Y-98300000D02*
X180950000Y-98300000D01*
X182200000Y-96100000D02*
X182200000Y-101500000D01*
X182200000Y-96100000D02*
X180700000Y-96100000D01*
%TO.C,D17*%
X104700000Y-44500000D02*
X104700000Y-39100000D01*
X106200000Y-44500000D02*
X104700000Y-44500000D01*
X105950000Y-42300000D02*
X104950000Y-42300000D01*
X105450000Y-42200000D02*
X105950000Y-41300000D01*
X104950000Y-41300000D02*
X105450000Y-42200000D01*
X105950000Y-41300000D02*
X104950000Y-41300000D01*
X106200000Y-39100000D02*
X106200000Y-44500000D01*
X106200000Y-39100000D02*
X104700000Y-39100000D01*
%TO.C,D24*%
X256700000Y-44500000D02*
X256700000Y-39100000D01*
X258200000Y-44500000D02*
X256700000Y-44500000D01*
X257950000Y-42300000D02*
X256950000Y-42300000D01*
X257450000Y-42200000D02*
X257950000Y-41300000D01*
X256950000Y-41300000D02*
X257450000Y-42200000D01*
X257950000Y-41300000D02*
X256950000Y-41300000D01*
X258200000Y-39100000D02*
X258200000Y-44500000D01*
X258200000Y-39100000D02*
X256700000Y-39100000D01*
D11*
%TO.C,C3*%
X142292164Y-31640000D02*
X142507836Y-31640000D01*
X142292164Y-32360000D02*
X142507836Y-32360000D01*
D10*
%TO.C,D57*%
X199700000Y-101500000D02*
X199700000Y-96100000D01*
X201200000Y-101500000D02*
X199700000Y-101500000D01*
X200950000Y-99300000D02*
X199950000Y-99300000D01*
X200450000Y-99200000D02*
X200950000Y-98300000D01*
X199950000Y-98300000D02*
X200450000Y-99200000D01*
X200950000Y-98300000D02*
X199950000Y-98300000D01*
X201200000Y-96100000D02*
X201200000Y-101500000D01*
X201200000Y-96100000D02*
X199700000Y-96100000D01*
%TD*%
%LPC*%
D12*
%TO.C,SW9*%
X187770000Y-21850000D03*
D13*
X189040000Y-19310000D03*
D14*
X192850000Y-21850000D03*
D13*
X195390000Y-16770000D03*
D12*
X197930000Y-21850000D03*
D15*
X185765000Y-19310000D03*
X198692000Y-16770000D03*
%TD*%
D12*
%TO.C,SW19*%
X149770000Y-40850000D03*
D13*
X151040000Y-38310000D03*
D14*
X154850000Y-40850000D03*
D13*
X157390000Y-35770000D03*
D12*
X159930000Y-40850000D03*
D15*
X147765000Y-38310000D03*
X160692000Y-35770000D03*
%TD*%
D12*
%TO.C,SW38*%
X35770000Y-78850000D03*
D13*
X37040000Y-76310000D03*
D14*
X40850000Y-78850000D03*
D13*
X43390000Y-73770000D03*
D12*
X45930000Y-78850000D03*
D15*
X33765000Y-76310000D03*
X46692000Y-73770000D03*
%TD*%
D12*
%TO.C,SW14*%
X35770000Y-40850000D03*
D13*
X37040000Y-38310000D03*
D14*
X40850000Y-40850000D03*
D13*
X43390000Y-35770000D03*
D12*
X45930000Y-40850000D03*
D15*
X33765000Y-38310000D03*
X46692000Y-35770000D03*
%TD*%
D12*
%TO.C,SW39*%
X54770000Y-78850000D03*
D13*
X56040000Y-76310000D03*
D14*
X59850000Y-78850000D03*
D13*
X62390000Y-73770000D03*
D12*
X64930000Y-78850000D03*
D15*
X52765000Y-76310000D03*
X65692000Y-73770000D03*
%TD*%
D12*
%TO.C,SW40*%
X73770000Y-78850000D03*
D13*
X75040000Y-76310000D03*
D14*
X78850000Y-78850000D03*
D13*
X81390000Y-73770000D03*
D12*
X83930000Y-78850000D03*
D15*
X71765000Y-76310000D03*
X84692000Y-73770000D03*
%TD*%
D12*
%TO.C,SW21*%
X187770000Y-40850000D03*
D13*
X189040000Y-38310000D03*
D14*
X192850000Y-40850000D03*
D13*
X195390000Y-35770000D03*
D12*
X197930000Y-40850000D03*
D15*
X185765000Y-38310000D03*
X198692000Y-35770000D03*
%TD*%
D12*
%TO.C,SW56*%
X168770000Y-97850000D03*
D13*
X170040000Y-95310000D03*
D14*
X173850000Y-97850000D03*
D13*
X176390000Y-92770000D03*
D12*
X178930000Y-97850000D03*
D15*
X166765000Y-95310000D03*
X179692000Y-92770000D03*
%TD*%
D12*
%TO.C,SW45*%
X187770000Y-78850000D03*
D13*
X189040000Y-76310000D03*
D14*
X192850000Y-78850000D03*
D13*
X195390000Y-73770000D03*
D12*
X197930000Y-78850000D03*
D15*
X185765000Y-76310000D03*
X198692000Y-73770000D03*
%TD*%
D12*
%TO.C,SW30*%
X111770000Y-59850000D03*
D13*
X113040000Y-57310000D03*
D14*
X116850000Y-59850000D03*
D13*
X119390000Y-54770000D03*
D12*
X121930000Y-59850000D03*
D15*
X109765000Y-57310000D03*
X122692000Y-54770000D03*
%TD*%
D12*
%TO.C,SW50*%
X-2230000Y-59850000D03*
D13*
X-960000Y-57310000D03*
D14*
X2850000Y-59850000D03*
D13*
X5390000Y-54770000D03*
D12*
X7930000Y-59850000D03*
D15*
X-4235000Y-57310000D03*
X8692000Y-54770000D03*
%TD*%
D12*
%TO.C,SW33*%
X187770000Y-59850000D03*
D13*
X189040000Y-57310000D03*
D14*
X192850000Y-59850000D03*
D13*
X195390000Y-54770000D03*
D12*
X197930000Y-59850000D03*
D15*
X185765000Y-57310000D03*
X198692000Y-54770000D03*
%TD*%
D12*
%TO.C,SW59*%
X263770000Y-59850000D03*
D13*
X265040000Y-57310000D03*
D14*
X268850000Y-59850000D03*
D13*
X271390000Y-54770000D03*
D12*
X273930000Y-59850000D03*
D15*
X261765000Y-57310000D03*
X274692000Y-54770000D03*
%TD*%
D12*
%TO.C,SW58*%
X263770000Y-78850000D03*
D13*
X265040000Y-76310000D03*
D14*
X268850000Y-78850000D03*
D13*
X271390000Y-73770000D03*
D12*
X273930000Y-78850000D03*
D15*
X261765000Y-76310000D03*
X274692000Y-73770000D03*
%TD*%
D12*
%TO.C,SW12*%
X244770000Y-21850000D03*
D13*
X246040000Y-19310000D03*
D14*
X249850000Y-21850000D03*
D13*
X252390000Y-16770000D03*
D12*
X254930000Y-21850000D03*
D15*
X242765000Y-19310000D03*
X255692000Y-16770000D03*
%TD*%
D12*
%TO.C,SW32*%
X168770000Y-59850000D03*
D13*
X170040000Y-57310000D03*
D14*
X173850000Y-59850000D03*
D13*
X176390000Y-54770000D03*
D12*
X178930000Y-59850000D03*
D15*
X166765000Y-57310000D03*
X179692000Y-54770000D03*
%TD*%
D12*
%TO.C,SW10*%
X206770000Y-21850000D03*
D13*
X208040000Y-19310000D03*
D14*
X211850000Y-21850000D03*
D13*
X214390000Y-16770000D03*
D12*
X216930000Y-21850000D03*
D15*
X204765000Y-19310000D03*
X217692000Y-16770000D03*
%TD*%
D12*
%TO.C,SW22*%
X206770000Y-40850000D03*
D13*
X208040000Y-38310000D03*
D14*
X211850000Y-40850000D03*
D13*
X214390000Y-35770000D03*
D12*
X216930000Y-40850000D03*
D15*
X204765000Y-38310000D03*
X217692000Y-35770000D03*
%TD*%
D12*
%TO.C,SW43*%
X149770000Y-78850000D03*
D13*
X151040000Y-76310000D03*
D14*
X154850000Y-78850000D03*
D13*
X157390000Y-73770000D03*
D12*
X159930000Y-78850000D03*
D15*
X147765000Y-76310000D03*
X160692000Y-73770000D03*
%TD*%
D12*
%TO.C,SW8*%
X168770000Y-21850000D03*
D13*
X170040000Y-19310000D03*
D14*
X173850000Y-21850000D03*
D13*
X176390000Y-16770000D03*
D12*
X178930000Y-21850000D03*
D15*
X166765000Y-19310000D03*
X179692000Y-16770000D03*
%TD*%
D12*
%TO.C,SW55*%
X149770000Y-97850000D03*
D13*
X151040000Y-95310000D03*
D14*
X154850000Y-97850000D03*
D13*
X157390000Y-92770000D03*
D12*
X159930000Y-97850000D03*
D15*
X147765000Y-95310000D03*
X160692000Y-92770000D03*
%TD*%
D12*
%TO.C,SW44*%
X168770000Y-78850000D03*
D13*
X170040000Y-76310000D03*
D14*
X173850000Y-78850000D03*
D13*
X176390000Y-73770000D03*
D12*
X178930000Y-78850000D03*
D15*
X166765000Y-76310000D03*
X179692000Y-73770000D03*
%TD*%
D12*
%TO.C,SW37*%
X16770000Y-78850000D03*
D13*
X18040000Y-76310000D03*
D14*
X21850000Y-78850000D03*
D13*
X24390000Y-73770000D03*
D12*
X26930000Y-78850000D03*
D15*
X14765000Y-76310000D03*
X27692000Y-73770000D03*
%TD*%
D12*
%TO.C,SW1*%
X16770000Y-21850000D03*
D13*
X18040000Y-19310000D03*
D14*
X21850000Y-21850000D03*
D13*
X24390000Y-16770000D03*
D12*
X26930000Y-21850000D03*
D15*
X14765000Y-19310000D03*
X27692000Y-16770000D03*
%TD*%
D12*
%TO.C,SW28*%
X73770000Y-59850000D03*
D13*
X75040000Y-57310000D03*
D14*
X78850000Y-59850000D03*
D13*
X81390000Y-54770000D03*
D12*
X83930000Y-59850000D03*
D15*
X71765000Y-57310000D03*
X84692000Y-54770000D03*
%TD*%
D12*
%TO.C,SW47*%
X225770000Y-78850000D03*
D13*
X227040000Y-76310000D03*
D14*
X230850000Y-78850000D03*
D13*
X233390000Y-73770000D03*
D12*
X235930000Y-78850000D03*
D15*
X223765000Y-76310000D03*
X236692000Y-73770000D03*
%TD*%
D12*
%TO.C,SW29*%
X92770000Y-59850000D03*
D13*
X94040000Y-57310000D03*
D14*
X97850000Y-59850000D03*
D13*
X100390000Y-54770000D03*
D12*
X102930000Y-59850000D03*
D15*
X90765000Y-57310000D03*
X103692000Y-54770000D03*
%TD*%
D12*
%TO.C,SW31*%
X149770000Y-59850000D03*
D13*
X151040000Y-57310000D03*
D14*
X154850000Y-59850000D03*
D13*
X157390000Y-54770000D03*
D12*
X159930000Y-59850000D03*
D15*
X147765000Y-57310000D03*
X160692000Y-54770000D03*
%TD*%
D12*
%TO.C,SW24*%
X244770000Y-40850000D03*
D13*
X246040000Y-38310000D03*
D14*
X249850000Y-40850000D03*
D13*
X252390000Y-35770000D03*
D12*
X254930000Y-40850000D03*
D15*
X242765000Y-38310000D03*
X255692000Y-35770000D03*
%TD*%
D12*
%TO.C,SW27*%
X54780000Y-59850000D03*
D13*
X56050000Y-57310000D03*
D14*
X59860000Y-59850000D03*
D13*
X62400000Y-54770000D03*
D12*
X64940000Y-59850000D03*
D15*
X52775000Y-57310000D03*
X65702000Y-54770000D03*
%TD*%
D12*
%TO.C,SW57*%
X187770000Y-97850000D03*
D13*
X189040000Y-95310000D03*
D14*
X192850000Y-97850000D03*
D13*
X195390000Y-92770000D03*
D12*
X197930000Y-97850000D03*
D15*
X185765000Y-95310000D03*
X198692000Y-92770000D03*
%TD*%
D12*
%TO.C,SW13*%
X16770000Y-40850000D03*
D13*
X18040000Y-38310000D03*
D14*
X21850000Y-40850000D03*
D13*
X24390000Y-35770000D03*
D12*
X26930000Y-40850000D03*
D15*
X14765000Y-38310000D03*
X27692000Y-35770000D03*
%TD*%
D12*
%TO.C,SW53*%
X92770000Y-97850000D03*
D13*
X94040000Y-95310000D03*
D14*
X97850000Y-97850000D03*
D13*
X100390000Y-92770000D03*
D12*
X102930000Y-97850000D03*
D15*
X90765000Y-95310000D03*
X103692000Y-92770000D03*
%TD*%
D12*
%TO.C,SW34*%
X206770000Y-59850000D03*
D13*
X208040000Y-57310000D03*
D14*
X211850000Y-59850000D03*
D13*
X214390000Y-54770000D03*
D12*
X216930000Y-59850000D03*
D15*
X204765000Y-57310000D03*
X217692000Y-54770000D03*
%TD*%
D12*
%TO.C,SW60*%
X263770000Y-40850000D03*
D13*
X265040000Y-38310000D03*
D14*
X268850000Y-40850000D03*
D13*
X271390000Y-35770000D03*
D12*
X273930000Y-40850000D03*
D15*
X261765000Y-38310000D03*
X274692000Y-35770000D03*
%TD*%
D12*
%TO.C,SW17*%
X92770000Y-40850000D03*
D13*
X94040000Y-38310000D03*
D14*
X97850000Y-40850000D03*
D13*
X100390000Y-35770000D03*
D12*
X102930000Y-40850000D03*
D15*
X90765000Y-38310000D03*
X103692000Y-35770000D03*
%TD*%
D12*
%TO.C,SW6*%
X111770000Y-21850000D03*
D13*
X113040000Y-19310000D03*
D14*
X116850000Y-21850000D03*
D13*
X119390000Y-16770000D03*
D12*
X121930000Y-21850000D03*
D15*
X109765000Y-19310000D03*
X122692000Y-16770000D03*
%TD*%
D12*
%TO.C,SW41*%
X92770000Y-78850000D03*
D13*
X94040000Y-76310000D03*
D14*
X97850000Y-78850000D03*
D13*
X100390000Y-73770000D03*
D12*
X102930000Y-78850000D03*
D15*
X90765000Y-76310000D03*
X103692000Y-73770000D03*
%TD*%
D12*
%TO.C,SW52*%
X73770000Y-97850000D03*
D13*
X75040000Y-95310000D03*
D14*
X78850000Y-97850000D03*
D13*
X81390000Y-92770000D03*
D12*
X83930000Y-97850000D03*
D15*
X71765000Y-95310000D03*
X84692000Y-92770000D03*
%TD*%
D12*
%TO.C,SW25*%
X16770000Y-59850000D03*
D13*
X18040000Y-57310000D03*
D14*
X21850000Y-59850000D03*
D13*
X24390000Y-54770000D03*
D12*
X26930000Y-59850000D03*
D15*
X14765000Y-57310000D03*
X27692000Y-54770000D03*
%TD*%
D12*
%TO.C,SW48*%
X244770000Y-78850000D03*
D13*
X246040000Y-76310000D03*
D14*
X249850000Y-78850000D03*
D13*
X252390000Y-73770000D03*
D12*
X254930000Y-78850000D03*
D15*
X242765000Y-76310000D03*
X255692000Y-73770000D03*
%TD*%
D12*
%TO.C,SW42*%
X111770000Y-78850000D03*
D13*
X113040000Y-76310000D03*
D14*
X116850000Y-78850000D03*
D13*
X119390000Y-73770000D03*
D12*
X121930000Y-78850000D03*
D15*
X109765000Y-76310000D03*
X122692000Y-73770000D03*
%TD*%
D12*
%TO.C,SW36*%
X244770000Y-59850000D03*
D13*
X246040000Y-57310000D03*
D14*
X249850000Y-59850000D03*
D13*
X252390000Y-54770000D03*
D12*
X254930000Y-59850000D03*
D15*
X242765000Y-57310000D03*
X255692000Y-54770000D03*
%TD*%
D12*
%TO.C,SW7*%
X149770000Y-21850000D03*
D13*
X151040000Y-19310000D03*
D14*
X154850000Y-21850000D03*
D13*
X157390000Y-16770000D03*
D12*
X159930000Y-21850000D03*
D15*
X147765000Y-19310000D03*
X160692000Y-16770000D03*
%TD*%
D12*
%TO.C,SW4*%
X73770000Y-21850000D03*
D13*
X75040000Y-19310000D03*
D14*
X78850000Y-21850000D03*
D13*
X81390000Y-16770000D03*
D12*
X83930000Y-21850000D03*
D15*
X71765000Y-19310000D03*
X84692000Y-16770000D03*
%TD*%
D12*
%TO.C,SW3*%
X54770000Y-21850000D03*
D13*
X56040000Y-19310000D03*
D14*
X59850000Y-21850000D03*
D13*
X62390000Y-16770000D03*
D12*
X64930000Y-21850000D03*
D15*
X52765000Y-19310000D03*
X65692000Y-16770000D03*
%TD*%
D12*
%TO.C,SW18*%
X111770000Y-40850000D03*
D13*
X113040000Y-38310000D03*
D14*
X116850000Y-40850000D03*
D13*
X119390000Y-35770000D03*
D12*
X121930000Y-40850000D03*
D15*
X109765000Y-38310000D03*
X122692000Y-35770000D03*
%TD*%
D12*
%TO.C,SW11*%
X225770000Y-21850000D03*
D13*
X227040000Y-19310000D03*
D14*
X230850000Y-21850000D03*
D13*
X233390000Y-16770000D03*
D12*
X235930000Y-21850000D03*
D15*
X223765000Y-19310000D03*
X236692000Y-16770000D03*
%TD*%
D12*
%TO.C,SW49*%
X-2230000Y-40850000D03*
D13*
X-960000Y-38310000D03*
D14*
X2850000Y-40850000D03*
D13*
X5390000Y-35770000D03*
D12*
X7930000Y-40850000D03*
D15*
X-4235000Y-38310000D03*
X8692000Y-35770000D03*
%TD*%
D12*
%TO.C,SW16*%
X73770000Y-40850000D03*
D13*
X75040000Y-38310000D03*
D14*
X78850000Y-40850000D03*
D13*
X81390000Y-35770000D03*
D12*
X83930000Y-40850000D03*
D15*
X71765000Y-38310000D03*
X84692000Y-35770000D03*
%TD*%
D12*
%TO.C,SW20*%
X168770000Y-40850000D03*
D13*
X170040000Y-38310000D03*
D14*
X173850000Y-40850000D03*
D13*
X176390000Y-35770000D03*
D12*
X178930000Y-40850000D03*
D15*
X166765000Y-38310000D03*
X179692000Y-35770000D03*
%TD*%
D12*
%TO.C,SW46*%
X206770000Y-78850000D03*
D13*
X208040000Y-76310000D03*
D14*
X211850000Y-78850000D03*
D13*
X214390000Y-73770000D03*
D12*
X216930000Y-78850000D03*
D15*
X204765000Y-76310000D03*
X217692000Y-73770000D03*
%TD*%
D12*
%TO.C,SW35*%
X225770000Y-59850000D03*
D13*
X227040000Y-57310000D03*
D14*
X230850000Y-59850000D03*
D13*
X233390000Y-54770000D03*
D12*
X235930000Y-59850000D03*
D15*
X223765000Y-57310000D03*
X236692000Y-54770000D03*
%TD*%
D12*
%TO.C,SW15*%
X54770000Y-40850000D03*
D13*
X56040000Y-38310000D03*
D14*
X59850000Y-40850000D03*
D13*
X62390000Y-35770000D03*
D12*
X64930000Y-40850000D03*
D15*
X52765000Y-38310000D03*
X65692000Y-35770000D03*
%TD*%
D12*
%TO.C,SW26*%
X35770000Y-59850000D03*
D13*
X37040000Y-57310000D03*
D14*
X40850000Y-59850000D03*
D13*
X43390000Y-54770000D03*
D12*
X45930000Y-59850000D03*
D15*
X33765000Y-57310000D03*
X46692000Y-54770000D03*
%TD*%
D12*
%TO.C,SW2*%
X35770000Y-21850000D03*
D13*
X37040000Y-19310000D03*
D14*
X40850000Y-21850000D03*
D13*
X43390000Y-16770000D03*
D12*
X45930000Y-21850000D03*
D15*
X33765000Y-19310000D03*
X46692000Y-16770000D03*
%TD*%
D12*
%TO.C,SW5*%
X92770000Y-21850000D03*
D13*
X94040000Y-19310000D03*
D14*
X97850000Y-21850000D03*
D13*
X100390000Y-16770000D03*
D12*
X102930000Y-21850000D03*
D15*
X90765000Y-19310000D03*
X103692000Y-16770000D03*
%TD*%
D12*
%TO.C,SW23*%
X225770000Y-40850000D03*
D13*
X227040000Y-38310000D03*
D14*
X230850000Y-40850000D03*
D13*
X233390000Y-35770000D03*
D12*
X235930000Y-40850000D03*
D15*
X223765000Y-38310000D03*
X236692000Y-35770000D03*
%TD*%
D12*
%TO.C,SW54*%
X111770000Y-97850000D03*
D13*
X113040000Y-95310000D03*
D14*
X116850000Y-97850000D03*
D13*
X119390000Y-92770000D03*
D12*
X121930000Y-97850000D03*
D15*
X109765000Y-95310000D03*
X122692000Y-92770000D03*
%TD*%
D12*
%TO.C,SW51*%
X-2230000Y-78850000D03*
D13*
X-960000Y-76310000D03*
D14*
X2850000Y-78850000D03*
D13*
X5390000Y-73770000D03*
D12*
X7930000Y-78850000D03*
D15*
X-4235000Y-76310000D03*
X8692000Y-73770000D03*
%TD*%
D16*
%TO.C,D12*%
X257450000Y-24575000D03*
X257450000Y-21025000D03*
%TD*%
%TO.C,D8*%
X181450000Y-24575000D03*
X181450000Y-21025000D03*
%TD*%
%TO.C,D44*%
X181450000Y-81575000D03*
X181450000Y-78025000D03*
%TD*%
D17*
%TO.C,RS1*%
X135800000Y-54300000D03*
X135800000Y-47800000D03*
%TD*%
D16*
%TO.C,D40*%
X86450000Y-81575000D03*
X86450000Y-78025000D03*
%TD*%
%TO.C,D27*%
X67450000Y-62575000D03*
X67450000Y-59025000D03*
%TD*%
%TO.C,D19*%
X162450000Y-43575000D03*
X162450000Y-40025000D03*
%TD*%
%TO.C,D32*%
X181450000Y-62575000D03*
X181450000Y-59025000D03*
%TD*%
D18*
%TO.C,F1*%
X142400000Y-21800000D03*
X142400000Y-24600000D03*
%TD*%
D19*
%TO.C,U3*%
X143350000Y-29337500D03*
X141450000Y-29337500D03*
X142400000Y-27062500D03*
%TD*%
D20*
%TO.C,R2*%
X138200000Y-21815000D03*
X138200000Y-22835000D03*
%TD*%
D21*
%TO.C,C8*%
X139000000Y-43680000D03*
X139000000Y-42720000D03*
%TD*%
D16*
%TO.C,D4*%
X86450000Y-24575000D03*
X86450000Y-21025000D03*
%TD*%
%TO.C,D38*%
X48450000Y-81575000D03*
X48450000Y-78025000D03*
%TD*%
%TO.C,D3*%
X67450000Y-24575000D03*
X67450000Y-21025000D03*
%TD*%
%TO.C,D52*%
X86450000Y-100575000D03*
X86450000Y-97025000D03*
%TD*%
%TO.C,D2*%
X48450000Y-24575000D03*
X48450000Y-21025000D03*
%TD*%
D20*
%TO.C,R3*%
X141400000Y-42690000D03*
X141400000Y-43710000D03*
%TD*%
D16*
%TO.C,D18*%
X124450000Y-43575000D03*
X124450000Y-40025000D03*
%TD*%
%TO.C,D45*%
X200450000Y-81575000D03*
X200450000Y-78025000D03*
%TD*%
%TO.C,D58*%
X276450000Y-81575000D03*
X276450000Y-78025000D03*
%TD*%
%TO.C,D6*%
X124450000Y-24575000D03*
X124450000Y-21025000D03*
%TD*%
%TO.C,D59*%
X276450000Y-62575000D03*
X276450000Y-59025000D03*
%TD*%
%TO.C,D37*%
X29450000Y-81575000D03*
X29450000Y-78025000D03*
%TD*%
%TO.C,D43*%
X162450000Y-81575000D03*
X162450000Y-78025000D03*
%TD*%
%TO.C,D50*%
X10450000Y-62575000D03*
X10450000Y-59025000D03*
%TD*%
%TO.C,D1*%
X29450000Y-24575000D03*
X29450000Y-21025000D03*
%TD*%
%TO.C,D53*%
X105450000Y-100575000D03*
X105450000Y-97025000D03*
%TD*%
%TO.C,D48*%
X257450000Y-81575000D03*
X257450000Y-78025000D03*
%TD*%
%TO.C,D60*%
X276450000Y-43575000D03*
X276450000Y-40025000D03*
%TD*%
%TO.C,D33*%
X200450000Y-62575000D03*
X200450000Y-59025000D03*
%TD*%
%TO.C,D39*%
X67450000Y-81575000D03*
X67450000Y-78025000D03*
%TD*%
%TO.C,D46*%
X219450000Y-81575000D03*
X219450000Y-78025000D03*
%TD*%
D22*
%TO.C,U1*%
X138150000Y-40562500D03*
X137650000Y-40562500D03*
X137150000Y-40562500D03*
X136650000Y-40562500D03*
X136150000Y-40562500D03*
X135650000Y-40562500D03*
X135150000Y-40562500D03*
X134650000Y-40562500D03*
X134150000Y-40562500D03*
X133650000Y-40562500D03*
X133150000Y-40562500D03*
X132650000Y-40562500D03*
D23*
X131237500Y-39150000D03*
X131237500Y-38650000D03*
X131237500Y-38150000D03*
X131237500Y-37650000D03*
X131237500Y-37150000D03*
X131237500Y-36650000D03*
X131237500Y-36150000D03*
X131237500Y-35650000D03*
X131237500Y-35150000D03*
X131237500Y-34650000D03*
X131237500Y-34150000D03*
X131237500Y-33650000D03*
D22*
X132650000Y-32237500D03*
X133150000Y-32237500D03*
X133650000Y-32237500D03*
X134150000Y-32237500D03*
X134650000Y-32237500D03*
X135150000Y-32237500D03*
X135650000Y-32237500D03*
X136150000Y-32237500D03*
X136650000Y-32237500D03*
X137150000Y-32237500D03*
X137650000Y-32237500D03*
X138150000Y-32237500D03*
D23*
X139562500Y-33650000D03*
X139562500Y-34150000D03*
X139562500Y-34650000D03*
X139562500Y-35150000D03*
X139562500Y-35650000D03*
X139562500Y-36150000D03*
X139562500Y-36650000D03*
X139562500Y-37150000D03*
X139562500Y-37650000D03*
X139562500Y-38150000D03*
X139562500Y-38650000D03*
X139562500Y-39150000D03*
%TD*%
D16*
%TO.C,D26*%
X48450000Y-62575000D03*
X48450000Y-59025000D03*
%TD*%
%TO.C,D23*%
X238450000Y-43575000D03*
X238450000Y-40025000D03*
%TD*%
D24*
%TO.C,C2*%
X141920000Y-31000000D03*
X142880000Y-31000000D03*
%TD*%
D19*
%TO.C,U2*%
X136800000Y-25837500D03*
X135850000Y-25837500D03*
X134900000Y-25837500D03*
X134900000Y-23562500D03*
X135850000Y-23562500D03*
X136800000Y-23562500D03*
%TD*%
D16*
%TO.C,D15*%
X67450000Y-43575000D03*
X67450000Y-40025000D03*
%TD*%
%TO.C,D7*%
X162450000Y-24575000D03*
X162450000Y-21025000D03*
%TD*%
D25*
%TO.C,C7*%
X131480000Y-31800000D03*
X130520000Y-31800000D03*
%TD*%
%TO.C,C1*%
X140680000Y-25400000D03*
X139720000Y-25400000D03*
%TD*%
D16*
%TO.C,D30*%
X124450000Y-62575000D03*
X124450000Y-59025000D03*
%TD*%
%TO.C,D20*%
X181450000Y-43575000D03*
X181450000Y-40025000D03*
%TD*%
D21*
%TO.C,C5*%
X134400000Y-43680000D03*
X134400000Y-42720000D03*
%TD*%
D25*
%TO.C,C6*%
X131480000Y-30800000D03*
X130520000Y-30800000D03*
%TD*%
D26*
%TO.C,IO1*%
X132960000Y-18980000D03*
X138740000Y-18980000D03*
D27*
X132625000Y-20425000D03*
X133400000Y-20425000D03*
D28*
X134100000Y-20425000D03*
X134600000Y-20425000D03*
X135100000Y-20425000D03*
X135600000Y-20425000D03*
X136100000Y-20425000D03*
X136600000Y-20425000D03*
X137100000Y-20425000D03*
X137600000Y-20425000D03*
D27*
X138300000Y-20425000D03*
X139075000Y-20425000D03*
%TD*%
D16*
%TO.C,D22*%
X219450000Y-43575000D03*
X219450000Y-40025000D03*
%TD*%
D21*
%TO.C,C9*%
X137750000Y-43680000D03*
X137750000Y-42720000D03*
%TD*%
D29*
%TO.C,R4*%
X136200000Y-43710000D03*
X136200000Y-42690000D03*
%TD*%
D16*
%TO.C,D34*%
X219450000Y-62575000D03*
X219450000Y-59025000D03*
%TD*%
%TO.C,D36*%
X257450000Y-62575000D03*
X257450000Y-59025000D03*
%TD*%
D20*
%TO.C,R1*%
X133600000Y-21890000D03*
X133600000Y-22910000D03*
%TD*%
D16*
%TO.C,D41*%
X105450000Y-81575000D03*
X105450000Y-78025000D03*
%TD*%
%TO.C,D49*%
X10450000Y-43575000D03*
X10450000Y-40025000D03*
%TD*%
%TO.C,D47*%
X238450000Y-81575000D03*
X238450000Y-78025000D03*
%TD*%
%TO.C,D42*%
X124450000Y-81575000D03*
X124450000Y-78025000D03*
%TD*%
%TO.C,D29*%
X105450000Y-62575000D03*
X105450000Y-59025000D03*
%TD*%
%TO.C,D5*%
X105450000Y-24575000D03*
X105450000Y-21025000D03*
%TD*%
%TO.C,D25*%
X29450000Y-62575000D03*
X29450000Y-59025000D03*
%TD*%
D25*
%TO.C,C4*%
X138680000Y-30600000D03*
X137720000Y-30600000D03*
%TD*%
D16*
%TO.C,D35*%
X238450000Y-62575000D03*
X238450000Y-59025000D03*
%TD*%
%TO.C,D28*%
X86450000Y-62575000D03*
X86450000Y-59025000D03*
%TD*%
%TO.C,D14*%
X48450000Y-43575000D03*
X48450000Y-40025000D03*
%TD*%
%TO.C,D51*%
X10450000Y-81575000D03*
X10450000Y-78025000D03*
%TD*%
%TO.C,D13*%
X29450000Y-43575000D03*
X29450000Y-40025000D03*
%TD*%
%TO.C,D21*%
X200450000Y-43575000D03*
X200450000Y-40025000D03*
%TD*%
%TO.C,D11*%
X238450000Y-24575000D03*
X238450000Y-21025000D03*
%TD*%
%TO.C,D9*%
X200450000Y-24575000D03*
X200450000Y-21025000D03*
%TD*%
%TO.C,D10*%
X219450000Y-24575000D03*
X219450000Y-21025000D03*
%TD*%
%TO.C,D54*%
X124450000Y-100575000D03*
X124450000Y-97025000D03*
%TD*%
%TO.C,D31*%
X162450000Y-62575000D03*
X162450000Y-59025000D03*
%TD*%
D17*
%TO.C,BT1*%
X141400000Y-54300000D03*
X141400000Y-47800000D03*
%TD*%
D16*
%TO.C,D55*%
X162450000Y-100575000D03*
X162450000Y-97025000D03*
%TD*%
%TO.C,D16*%
X86450000Y-43575000D03*
X86450000Y-40025000D03*
%TD*%
%TO.C,D56*%
X181450000Y-100575000D03*
X181450000Y-97025000D03*
%TD*%
%TO.C,D17*%
X105450000Y-43575000D03*
X105450000Y-40025000D03*
%TD*%
%TO.C,D24*%
X257450000Y-43575000D03*
X257450000Y-40025000D03*
%TD*%
D24*
%TO.C,C3*%
X141920000Y-32000000D03*
X142880000Y-32000000D03*
%TD*%
D16*
%TO.C,D57*%
X200450000Y-100575000D03*
X200450000Y-97025000D03*
%TD*%
%LPD*%
M02*
