%TF.GenerationSoftware,KiCad,Pcbnew,7.0.9*%
%TF.CreationDate,2024-01-02T07:13:13+09:00*%
%TF.ProjectId,SpaceCadet2024,53706163-6543-4616-9465-74323032342e,rev?*%
%TF.SameCoordinates,Original*%
%TF.FileFunction,Soldermask,Bot*%
%TF.FilePolarity,Negative*%
%FSLAX46Y46*%
G04 Gerber Fmt 4.6, Leading zero omitted, Abs format (unit mm)*
G04 Created by KiCad (PCBNEW 7.0.9) date 2024-01-02 07:13:13*
%MOMM*%
%LPD*%
G01*
G04 APERTURE LIST*
G04 Aperture macros list*
%AMRoundRect*
0 Rectangle with rounded corners*
0 $1 Rounding radius*
0 $2 $3 $4 $5 $6 $7 $8 $9 X,Y pos of 4 corners*
0 Add a 4 corners polygon primitive as box body*
4,1,4,$2,$3,$4,$5,$6,$7,$8,$9,$2,$3,0*
0 Add four circle primitives for the rounded corners*
1,1,$1+$1,$2,$3*
1,1,$1+$1,$4,$5*
1,1,$1+$1,$6,$7*
1,1,$1+$1,$8,$9*
0 Add four rect primitives between the rounded corners*
20,1,$1+$1,$2,$3,$4,$5,0*
20,1,$1+$1,$4,$5,$6,$7,0*
20,1,$1+$1,$6,$7,$8,$9,0*
20,1,$1+$1,$8,$9,$2,$3,0*%
G04 Aperture macros list end*
%ADD10C,1.701800*%
%ADD11C,3.000000*%
%ADD12C,3.987800*%
%ADD13RoundRect,0.200000X-1.075000X-1.050000X1.075000X-1.050000X1.075000X1.050000X-1.075000X1.050000X0*%
%ADD14R,0.950000X1.300000*%
%ADD15C,2.000000*%
%ADD16RoundRect,0.250000X-0.625000X0.375000X-0.625000X-0.375000X0.625000X-0.375000X0.625000X0.375000X0*%
%ADD17RoundRect,0.150000X0.150000X-0.512500X0.150000X0.512500X-0.150000X0.512500X-0.150000X-0.512500X0*%
%ADD18RoundRect,0.135000X-0.185000X0.135000X-0.185000X-0.135000X0.185000X-0.135000X0.185000X0.135000X0*%
%ADD19RoundRect,0.140000X0.170000X-0.140000X0.170000X0.140000X-0.170000X0.140000X-0.170000X-0.140000X0*%
%ADD20RoundRect,0.075000X0.075000X-0.662500X0.075000X0.662500X-0.075000X0.662500X-0.075000X-0.662500X0*%
%ADD21RoundRect,0.075000X0.662500X-0.075000X0.662500X0.075000X-0.662500X0.075000X-0.662500X-0.075000X0*%
%ADD22RoundRect,0.140000X-0.140000X-0.170000X0.140000X-0.170000X0.140000X0.170000X-0.140000X0.170000X0*%
%ADD23RoundRect,0.140000X0.140000X0.170000X-0.140000X0.170000X-0.140000X-0.170000X0.140000X-0.170000X0*%
%ADD24C,0.650000*%
%ADD25R,0.600000X1.450000*%
%ADD26R,0.300000X1.450000*%
%ADD27RoundRect,0.135000X0.185000X-0.135000X0.185000X0.135000X-0.185000X0.135000X-0.185000X-0.135000X0*%
G04 APERTURE END LIST*
D10*
%TO.C,SW9*%
X187770000Y-21850000D03*
D11*
X189040000Y-19310000D03*
D12*
X192850000Y-21850000D03*
D11*
X195390000Y-16770000D03*
D10*
X197930000Y-21850000D03*
D13*
X185765000Y-19310000D03*
X198692000Y-16770000D03*
%TD*%
D10*
%TO.C,SW19*%
X149770000Y-40850000D03*
D11*
X151040000Y-38310000D03*
D12*
X154850000Y-40850000D03*
D11*
X157390000Y-35770000D03*
D10*
X159930000Y-40850000D03*
D13*
X147765000Y-38310000D03*
X160692000Y-35770000D03*
%TD*%
D10*
%TO.C,SW38*%
X35770000Y-78850000D03*
D11*
X37040000Y-76310000D03*
D12*
X40850000Y-78850000D03*
D11*
X43390000Y-73770000D03*
D10*
X45930000Y-78850000D03*
D13*
X33765000Y-76310000D03*
X46692000Y-73770000D03*
%TD*%
D10*
%TO.C,SW14*%
X35770000Y-40850000D03*
D11*
X37040000Y-38310000D03*
D12*
X40850000Y-40850000D03*
D11*
X43390000Y-35770000D03*
D10*
X45930000Y-40850000D03*
D13*
X33765000Y-38310000D03*
X46692000Y-35770000D03*
%TD*%
D10*
%TO.C,SW39*%
X54770000Y-78850000D03*
D11*
X56040000Y-76310000D03*
D12*
X59850000Y-78850000D03*
D11*
X62390000Y-73770000D03*
D10*
X64930000Y-78850000D03*
D13*
X52765000Y-76310000D03*
X65692000Y-73770000D03*
%TD*%
D10*
%TO.C,SW40*%
X73770000Y-78850000D03*
D11*
X75040000Y-76310000D03*
D12*
X78850000Y-78850000D03*
D11*
X81390000Y-73770000D03*
D10*
X83930000Y-78850000D03*
D13*
X71765000Y-76310000D03*
X84692000Y-73770000D03*
%TD*%
D10*
%TO.C,SW21*%
X187770000Y-40850000D03*
D11*
X189040000Y-38310000D03*
D12*
X192850000Y-40850000D03*
D11*
X195390000Y-35770000D03*
D10*
X197930000Y-40850000D03*
D13*
X185765000Y-38310000D03*
X198692000Y-35770000D03*
%TD*%
D10*
%TO.C,SW56*%
X168770000Y-97850000D03*
D11*
X170040000Y-95310000D03*
D12*
X173850000Y-97850000D03*
D11*
X176390000Y-92770000D03*
D10*
X178930000Y-97850000D03*
D13*
X166765000Y-95310000D03*
X179692000Y-92770000D03*
%TD*%
D10*
%TO.C,SW45*%
X187770000Y-78850000D03*
D11*
X189040000Y-76310000D03*
D12*
X192850000Y-78850000D03*
D11*
X195390000Y-73770000D03*
D10*
X197930000Y-78850000D03*
D13*
X185765000Y-76310000D03*
X198692000Y-73770000D03*
%TD*%
D10*
%TO.C,SW30*%
X111770000Y-59850000D03*
D11*
X113040000Y-57310000D03*
D12*
X116850000Y-59850000D03*
D11*
X119390000Y-54770000D03*
D10*
X121930000Y-59850000D03*
D13*
X109765000Y-57310000D03*
X122692000Y-54770000D03*
%TD*%
D10*
%TO.C,SW50*%
X-2230000Y-59850000D03*
D11*
X-960000Y-57310000D03*
D12*
X2850000Y-59850000D03*
D11*
X5390000Y-54770000D03*
D10*
X7930000Y-59850000D03*
D13*
X-4235000Y-57310000D03*
X8692000Y-54770000D03*
%TD*%
D10*
%TO.C,SW33*%
X187770000Y-59850000D03*
D11*
X189040000Y-57310000D03*
D12*
X192850000Y-59850000D03*
D11*
X195390000Y-54770000D03*
D10*
X197930000Y-59850000D03*
D13*
X185765000Y-57310000D03*
X198692000Y-54770000D03*
%TD*%
D10*
%TO.C,SW59*%
X263770000Y-59850000D03*
D11*
X265040000Y-57310000D03*
D12*
X268850000Y-59850000D03*
D11*
X271390000Y-54770000D03*
D10*
X273930000Y-59850000D03*
D13*
X261765000Y-57310000D03*
X274692000Y-54770000D03*
%TD*%
D10*
%TO.C,SW58*%
X263770000Y-78850000D03*
D11*
X265040000Y-76310000D03*
D12*
X268850000Y-78850000D03*
D11*
X271390000Y-73770000D03*
D10*
X273930000Y-78850000D03*
D13*
X261765000Y-76310000D03*
X274692000Y-73770000D03*
%TD*%
D10*
%TO.C,SW12*%
X244770000Y-21850000D03*
D11*
X246040000Y-19310000D03*
D12*
X249850000Y-21850000D03*
D11*
X252390000Y-16770000D03*
D10*
X254930000Y-21850000D03*
D13*
X242765000Y-19310000D03*
X255692000Y-16770000D03*
%TD*%
D10*
%TO.C,SW32*%
X168770000Y-59850000D03*
D11*
X170040000Y-57310000D03*
D12*
X173850000Y-59850000D03*
D11*
X176390000Y-54770000D03*
D10*
X178930000Y-59850000D03*
D13*
X166765000Y-57310000D03*
X179692000Y-54770000D03*
%TD*%
D10*
%TO.C,SW10*%
X206770000Y-21850000D03*
D11*
X208040000Y-19310000D03*
D12*
X211850000Y-21850000D03*
D11*
X214390000Y-16770000D03*
D10*
X216930000Y-21850000D03*
D13*
X204765000Y-19310000D03*
X217692000Y-16770000D03*
%TD*%
D10*
%TO.C,SW22*%
X206770000Y-40850000D03*
D11*
X208040000Y-38310000D03*
D12*
X211850000Y-40850000D03*
D11*
X214390000Y-35770000D03*
D10*
X216930000Y-40850000D03*
D13*
X204765000Y-38310000D03*
X217692000Y-35770000D03*
%TD*%
D10*
%TO.C,SW43*%
X149770000Y-78850000D03*
D11*
X151040000Y-76310000D03*
D12*
X154850000Y-78850000D03*
D11*
X157390000Y-73770000D03*
D10*
X159930000Y-78850000D03*
D13*
X147765000Y-76310000D03*
X160692000Y-73770000D03*
%TD*%
D10*
%TO.C,SW8*%
X168770000Y-21850000D03*
D11*
X170040000Y-19310000D03*
D12*
X173850000Y-21850000D03*
D11*
X176390000Y-16770000D03*
D10*
X178930000Y-21850000D03*
D13*
X166765000Y-19310000D03*
X179692000Y-16770000D03*
%TD*%
D10*
%TO.C,SW55*%
X149770000Y-97850000D03*
D11*
X151040000Y-95310000D03*
D12*
X154850000Y-97850000D03*
D11*
X157390000Y-92770000D03*
D10*
X159930000Y-97850000D03*
D13*
X147765000Y-95310000D03*
X160692000Y-92770000D03*
%TD*%
D10*
%TO.C,SW44*%
X168770000Y-78850000D03*
D11*
X170040000Y-76310000D03*
D12*
X173850000Y-78850000D03*
D11*
X176390000Y-73770000D03*
D10*
X178930000Y-78850000D03*
D13*
X166765000Y-76310000D03*
X179692000Y-73770000D03*
%TD*%
D10*
%TO.C,SW37*%
X16770000Y-78850000D03*
D11*
X18040000Y-76310000D03*
D12*
X21850000Y-78850000D03*
D11*
X24390000Y-73770000D03*
D10*
X26930000Y-78850000D03*
D13*
X14765000Y-76310000D03*
X27692000Y-73770000D03*
%TD*%
D10*
%TO.C,SW1*%
X16770000Y-21850000D03*
D11*
X18040000Y-19310000D03*
D12*
X21850000Y-21850000D03*
D11*
X24390000Y-16770000D03*
D10*
X26930000Y-21850000D03*
D13*
X14765000Y-19310000D03*
X27692000Y-16770000D03*
%TD*%
D10*
%TO.C,SW28*%
X73770000Y-59850000D03*
D11*
X75040000Y-57310000D03*
D12*
X78850000Y-59850000D03*
D11*
X81390000Y-54770000D03*
D10*
X83930000Y-59850000D03*
D13*
X71765000Y-57310000D03*
X84692000Y-54770000D03*
%TD*%
D10*
%TO.C,SW47*%
X225770000Y-78850000D03*
D11*
X227040000Y-76310000D03*
D12*
X230850000Y-78850000D03*
D11*
X233390000Y-73770000D03*
D10*
X235930000Y-78850000D03*
D13*
X223765000Y-76310000D03*
X236692000Y-73770000D03*
%TD*%
D10*
%TO.C,SW29*%
X92770000Y-59850000D03*
D11*
X94040000Y-57310000D03*
D12*
X97850000Y-59850000D03*
D11*
X100390000Y-54770000D03*
D10*
X102930000Y-59850000D03*
D13*
X90765000Y-57310000D03*
X103692000Y-54770000D03*
%TD*%
D10*
%TO.C,SW31*%
X149770000Y-59850000D03*
D11*
X151040000Y-57310000D03*
D12*
X154850000Y-59850000D03*
D11*
X157390000Y-54770000D03*
D10*
X159930000Y-59850000D03*
D13*
X147765000Y-57310000D03*
X160692000Y-54770000D03*
%TD*%
D10*
%TO.C,SW24*%
X244770000Y-40850000D03*
D11*
X246040000Y-38310000D03*
D12*
X249850000Y-40850000D03*
D11*
X252390000Y-35770000D03*
D10*
X254930000Y-40850000D03*
D13*
X242765000Y-38310000D03*
X255692000Y-35770000D03*
%TD*%
D10*
%TO.C,SW27*%
X54780000Y-59850000D03*
D11*
X56050000Y-57310000D03*
D12*
X59860000Y-59850000D03*
D11*
X62400000Y-54770000D03*
D10*
X64940000Y-59850000D03*
D13*
X52775000Y-57310000D03*
X65702000Y-54770000D03*
%TD*%
D10*
%TO.C,SW57*%
X187770000Y-97850000D03*
D11*
X189040000Y-95310000D03*
D12*
X192850000Y-97850000D03*
D11*
X195390000Y-92770000D03*
D10*
X197930000Y-97850000D03*
D13*
X185765000Y-95310000D03*
X198692000Y-92770000D03*
%TD*%
D10*
%TO.C,SW13*%
X16770000Y-40850000D03*
D11*
X18040000Y-38310000D03*
D12*
X21850000Y-40850000D03*
D11*
X24390000Y-35770000D03*
D10*
X26930000Y-40850000D03*
D13*
X14765000Y-38310000D03*
X27692000Y-35770000D03*
%TD*%
D10*
%TO.C,SW53*%
X92770000Y-97850000D03*
D11*
X94040000Y-95310000D03*
D12*
X97850000Y-97850000D03*
D11*
X100390000Y-92770000D03*
D10*
X102930000Y-97850000D03*
D13*
X90765000Y-95310000D03*
X103692000Y-92770000D03*
%TD*%
D10*
%TO.C,SW34*%
X206770000Y-59850000D03*
D11*
X208040000Y-57310000D03*
D12*
X211850000Y-59850000D03*
D11*
X214390000Y-54770000D03*
D10*
X216930000Y-59850000D03*
D13*
X204765000Y-57310000D03*
X217692000Y-54770000D03*
%TD*%
D10*
%TO.C,SW60*%
X263770000Y-40850000D03*
D11*
X265040000Y-38310000D03*
D12*
X268850000Y-40850000D03*
D11*
X271390000Y-35770000D03*
D10*
X273930000Y-40850000D03*
D13*
X261765000Y-38310000D03*
X274692000Y-35770000D03*
%TD*%
D10*
%TO.C,SW17*%
X92770000Y-40850000D03*
D11*
X94040000Y-38310000D03*
D12*
X97850000Y-40850000D03*
D11*
X100390000Y-35770000D03*
D10*
X102930000Y-40850000D03*
D13*
X90765000Y-38310000D03*
X103692000Y-35770000D03*
%TD*%
D10*
%TO.C,SW6*%
X111770000Y-21850000D03*
D11*
X113040000Y-19310000D03*
D12*
X116850000Y-21850000D03*
D11*
X119390000Y-16770000D03*
D10*
X121930000Y-21850000D03*
D13*
X109765000Y-19310000D03*
X122692000Y-16770000D03*
%TD*%
D10*
%TO.C,SW41*%
X92770000Y-78850000D03*
D11*
X94040000Y-76310000D03*
D12*
X97850000Y-78850000D03*
D11*
X100390000Y-73770000D03*
D10*
X102930000Y-78850000D03*
D13*
X90765000Y-76310000D03*
X103692000Y-73770000D03*
%TD*%
D10*
%TO.C,SW52*%
X73770000Y-97850000D03*
D11*
X75040000Y-95310000D03*
D12*
X78850000Y-97850000D03*
D11*
X81390000Y-92770000D03*
D10*
X83930000Y-97850000D03*
D13*
X71765000Y-95310000D03*
X84692000Y-92770000D03*
%TD*%
D10*
%TO.C,SW25*%
X16770000Y-59850000D03*
D11*
X18040000Y-57310000D03*
D12*
X21850000Y-59850000D03*
D11*
X24390000Y-54770000D03*
D10*
X26930000Y-59850000D03*
D13*
X14765000Y-57310000D03*
X27692000Y-54770000D03*
%TD*%
D10*
%TO.C,SW48*%
X244770000Y-78850000D03*
D11*
X246040000Y-76310000D03*
D12*
X249850000Y-78850000D03*
D11*
X252390000Y-73770000D03*
D10*
X254930000Y-78850000D03*
D13*
X242765000Y-76310000D03*
X255692000Y-73770000D03*
%TD*%
D10*
%TO.C,SW42*%
X111770000Y-78850000D03*
D11*
X113040000Y-76310000D03*
D12*
X116850000Y-78850000D03*
D11*
X119390000Y-73770000D03*
D10*
X121930000Y-78850000D03*
D13*
X109765000Y-76310000D03*
X122692000Y-73770000D03*
%TD*%
D10*
%TO.C,SW36*%
X244770000Y-59850000D03*
D11*
X246040000Y-57310000D03*
D12*
X249850000Y-59850000D03*
D11*
X252390000Y-54770000D03*
D10*
X254930000Y-59850000D03*
D13*
X242765000Y-57310000D03*
X255692000Y-54770000D03*
%TD*%
D10*
%TO.C,SW7*%
X149770000Y-21850000D03*
D11*
X151040000Y-19310000D03*
D12*
X154850000Y-21850000D03*
D11*
X157390000Y-16770000D03*
D10*
X159930000Y-21850000D03*
D13*
X147765000Y-19310000D03*
X160692000Y-16770000D03*
%TD*%
D10*
%TO.C,SW4*%
X73770000Y-21850000D03*
D11*
X75040000Y-19310000D03*
D12*
X78850000Y-21850000D03*
D11*
X81390000Y-16770000D03*
D10*
X83930000Y-21850000D03*
D13*
X71765000Y-19310000D03*
X84692000Y-16770000D03*
%TD*%
D10*
%TO.C,SW3*%
X54770000Y-21850000D03*
D11*
X56040000Y-19310000D03*
D12*
X59850000Y-21850000D03*
D11*
X62390000Y-16770000D03*
D10*
X64930000Y-21850000D03*
D13*
X52765000Y-19310000D03*
X65692000Y-16770000D03*
%TD*%
D10*
%TO.C,SW18*%
X111770000Y-40850000D03*
D11*
X113040000Y-38310000D03*
D12*
X116850000Y-40850000D03*
D11*
X119390000Y-35770000D03*
D10*
X121930000Y-40850000D03*
D13*
X109765000Y-38310000D03*
X122692000Y-35770000D03*
%TD*%
D10*
%TO.C,SW11*%
X225770000Y-21850000D03*
D11*
X227040000Y-19310000D03*
D12*
X230850000Y-21850000D03*
D11*
X233390000Y-16770000D03*
D10*
X235930000Y-21850000D03*
D13*
X223765000Y-19310000D03*
X236692000Y-16770000D03*
%TD*%
D10*
%TO.C,SW49*%
X-2230000Y-40850000D03*
D11*
X-960000Y-38310000D03*
D12*
X2850000Y-40850000D03*
D11*
X5390000Y-35770000D03*
D10*
X7930000Y-40850000D03*
D13*
X-4235000Y-38310000D03*
X8692000Y-35770000D03*
%TD*%
D10*
%TO.C,SW16*%
X73770000Y-40850000D03*
D11*
X75040000Y-38310000D03*
D12*
X78850000Y-40850000D03*
D11*
X81390000Y-35770000D03*
D10*
X83930000Y-40850000D03*
D13*
X71765000Y-38310000D03*
X84692000Y-35770000D03*
%TD*%
D10*
%TO.C,SW20*%
X168770000Y-40850000D03*
D11*
X170040000Y-38310000D03*
D12*
X173850000Y-40850000D03*
D11*
X176390000Y-35770000D03*
D10*
X178930000Y-40850000D03*
D13*
X166765000Y-38310000D03*
X179692000Y-35770000D03*
%TD*%
D10*
%TO.C,SW46*%
X206770000Y-78850000D03*
D11*
X208040000Y-76310000D03*
D12*
X211850000Y-78850000D03*
D11*
X214390000Y-73770000D03*
D10*
X216930000Y-78850000D03*
D13*
X204765000Y-76310000D03*
X217692000Y-73770000D03*
%TD*%
D10*
%TO.C,SW35*%
X225770000Y-59850000D03*
D11*
X227040000Y-57310000D03*
D12*
X230850000Y-59850000D03*
D11*
X233390000Y-54770000D03*
D10*
X235930000Y-59850000D03*
D13*
X223765000Y-57310000D03*
X236692000Y-54770000D03*
%TD*%
D10*
%TO.C,SW15*%
X54770000Y-40850000D03*
D11*
X56040000Y-38310000D03*
D12*
X59850000Y-40850000D03*
D11*
X62390000Y-35770000D03*
D10*
X64930000Y-40850000D03*
D13*
X52765000Y-38310000D03*
X65692000Y-35770000D03*
%TD*%
D10*
%TO.C,SW26*%
X35770000Y-59850000D03*
D11*
X37040000Y-57310000D03*
D12*
X40850000Y-59850000D03*
D11*
X43390000Y-54770000D03*
D10*
X45930000Y-59850000D03*
D13*
X33765000Y-57310000D03*
X46692000Y-54770000D03*
%TD*%
D10*
%TO.C,SW2*%
X35770000Y-21850000D03*
D11*
X37040000Y-19310000D03*
D12*
X40850000Y-21850000D03*
D11*
X43390000Y-16770000D03*
D10*
X45930000Y-21850000D03*
D13*
X33765000Y-19310000D03*
X46692000Y-16770000D03*
%TD*%
D10*
%TO.C,SW5*%
X92770000Y-21850000D03*
D11*
X94040000Y-19310000D03*
D12*
X97850000Y-21850000D03*
D11*
X100390000Y-16770000D03*
D10*
X102930000Y-21850000D03*
D13*
X90765000Y-19310000D03*
X103692000Y-16770000D03*
%TD*%
D10*
%TO.C,SW23*%
X225770000Y-40850000D03*
D11*
X227040000Y-38310000D03*
D12*
X230850000Y-40850000D03*
D11*
X233390000Y-35770000D03*
D10*
X235930000Y-40850000D03*
D13*
X223765000Y-38310000D03*
X236692000Y-35770000D03*
%TD*%
D10*
%TO.C,SW54*%
X111770000Y-97850000D03*
D11*
X113040000Y-95310000D03*
D12*
X116850000Y-97850000D03*
D11*
X119390000Y-92770000D03*
D10*
X121930000Y-97850000D03*
D13*
X109765000Y-95310000D03*
X122692000Y-92770000D03*
%TD*%
D10*
%TO.C,SW51*%
X-2230000Y-78850000D03*
D11*
X-960000Y-76310000D03*
D12*
X2850000Y-78850000D03*
D11*
X5390000Y-73770000D03*
D10*
X7930000Y-78850000D03*
D13*
X-4235000Y-76310000D03*
X8692000Y-73770000D03*
%TD*%
D14*
%TO.C,D12*%
X257450000Y-24575000D03*
X257450000Y-21025000D03*
%TD*%
%TO.C,D8*%
X181450000Y-24575000D03*
X181450000Y-21025000D03*
%TD*%
%TO.C,D44*%
X181450000Y-81575000D03*
X181450000Y-78025000D03*
%TD*%
D15*
%TO.C,RS1*%
X135800000Y-54300000D03*
X135800000Y-47800000D03*
%TD*%
D14*
%TO.C,D40*%
X86450000Y-81575000D03*
X86450000Y-78025000D03*
%TD*%
%TO.C,D27*%
X67450000Y-62575000D03*
X67450000Y-59025000D03*
%TD*%
%TO.C,D19*%
X162450000Y-43575000D03*
X162450000Y-40025000D03*
%TD*%
%TO.C,D32*%
X181450000Y-62575000D03*
X181450000Y-59025000D03*
%TD*%
D16*
%TO.C,F1*%
X142400000Y-21800000D03*
X142400000Y-24600000D03*
%TD*%
D17*
%TO.C,U3*%
X143350000Y-29337500D03*
X141450000Y-29337500D03*
X142400000Y-27062500D03*
%TD*%
D18*
%TO.C,R2*%
X138200000Y-21815000D03*
X138200000Y-22835000D03*
%TD*%
D19*
%TO.C,C8*%
X139000000Y-43680000D03*
X139000000Y-42720000D03*
%TD*%
D14*
%TO.C,D4*%
X86450000Y-24575000D03*
X86450000Y-21025000D03*
%TD*%
%TO.C,D38*%
X48450000Y-81575000D03*
X48450000Y-78025000D03*
%TD*%
%TO.C,D3*%
X67450000Y-24575000D03*
X67450000Y-21025000D03*
%TD*%
%TO.C,D52*%
X86450000Y-100575000D03*
X86450000Y-97025000D03*
%TD*%
%TO.C,D2*%
X48450000Y-24575000D03*
X48450000Y-21025000D03*
%TD*%
D18*
%TO.C,R3*%
X141400000Y-42690000D03*
X141400000Y-43710000D03*
%TD*%
D14*
%TO.C,D18*%
X124450000Y-43575000D03*
X124450000Y-40025000D03*
%TD*%
%TO.C,D45*%
X200450000Y-81575000D03*
X200450000Y-78025000D03*
%TD*%
%TO.C,D58*%
X276450000Y-81575000D03*
X276450000Y-78025000D03*
%TD*%
%TO.C,D6*%
X124450000Y-24575000D03*
X124450000Y-21025000D03*
%TD*%
%TO.C,D59*%
X276450000Y-62575000D03*
X276450000Y-59025000D03*
%TD*%
%TO.C,D37*%
X29450000Y-81575000D03*
X29450000Y-78025000D03*
%TD*%
%TO.C,D43*%
X162450000Y-81575000D03*
X162450000Y-78025000D03*
%TD*%
%TO.C,D50*%
X10450000Y-62575000D03*
X10450000Y-59025000D03*
%TD*%
%TO.C,D1*%
X29450000Y-24575000D03*
X29450000Y-21025000D03*
%TD*%
%TO.C,D53*%
X105450000Y-100575000D03*
X105450000Y-97025000D03*
%TD*%
%TO.C,D48*%
X257450000Y-81575000D03*
X257450000Y-78025000D03*
%TD*%
%TO.C,D60*%
X276450000Y-43575000D03*
X276450000Y-40025000D03*
%TD*%
%TO.C,D33*%
X200450000Y-62575000D03*
X200450000Y-59025000D03*
%TD*%
%TO.C,D39*%
X67450000Y-81575000D03*
X67450000Y-78025000D03*
%TD*%
%TO.C,D46*%
X219450000Y-81575000D03*
X219450000Y-78025000D03*
%TD*%
D20*
%TO.C,U1*%
X138150000Y-40562500D03*
X137650000Y-40562500D03*
X137150000Y-40562500D03*
X136650000Y-40562500D03*
X136150000Y-40562500D03*
X135650000Y-40562500D03*
X135150000Y-40562500D03*
X134650000Y-40562500D03*
X134150000Y-40562500D03*
X133650000Y-40562500D03*
X133150000Y-40562500D03*
X132650000Y-40562500D03*
D21*
X131237500Y-39150000D03*
X131237500Y-38650000D03*
X131237500Y-38150000D03*
X131237500Y-37650000D03*
X131237500Y-37150000D03*
X131237500Y-36650000D03*
X131237500Y-36150000D03*
X131237500Y-35650000D03*
X131237500Y-35150000D03*
X131237500Y-34650000D03*
X131237500Y-34150000D03*
X131237500Y-33650000D03*
D20*
X132650000Y-32237500D03*
X133150000Y-32237500D03*
X133650000Y-32237500D03*
X134150000Y-32237500D03*
X134650000Y-32237500D03*
X135150000Y-32237500D03*
X135650000Y-32237500D03*
X136150000Y-32237500D03*
X136650000Y-32237500D03*
X137150000Y-32237500D03*
X137650000Y-32237500D03*
X138150000Y-32237500D03*
D21*
X139562500Y-33650000D03*
X139562500Y-34150000D03*
X139562500Y-34650000D03*
X139562500Y-35150000D03*
X139562500Y-35650000D03*
X139562500Y-36150000D03*
X139562500Y-36650000D03*
X139562500Y-37150000D03*
X139562500Y-37650000D03*
X139562500Y-38150000D03*
X139562500Y-38650000D03*
X139562500Y-39150000D03*
%TD*%
D14*
%TO.C,D26*%
X48450000Y-62575000D03*
X48450000Y-59025000D03*
%TD*%
%TO.C,D23*%
X238450000Y-43575000D03*
X238450000Y-40025000D03*
%TD*%
D22*
%TO.C,C2*%
X141920000Y-31000000D03*
X142880000Y-31000000D03*
%TD*%
D17*
%TO.C,U2*%
X136800000Y-25837500D03*
X135850000Y-25837500D03*
X134900000Y-25837500D03*
X134900000Y-23562500D03*
X135850000Y-23562500D03*
X136800000Y-23562500D03*
%TD*%
D14*
%TO.C,D15*%
X67450000Y-43575000D03*
X67450000Y-40025000D03*
%TD*%
%TO.C,D7*%
X162450000Y-24575000D03*
X162450000Y-21025000D03*
%TD*%
D23*
%TO.C,C7*%
X131480000Y-31800000D03*
X130520000Y-31800000D03*
%TD*%
%TO.C,C1*%
X140680000Y-25400000D03*
X139720000Y-25400000D03*
%TD*%
D14*
%TO.C,D30*%
X124450000Y-62575000D03*
X124450000Y-59025000D03*
%TD*%
%TO.C,D20*%
X181450000Y-43575000D03*
X181450000Y-40025000D03*
%TD*%
D19*
%TO.C,C5*%
X134400000Y-43680000D03*
X134400000Y-42720000D03*
%TD*%
D23*
%TO.C,C6*%
X131480000Y-30800000D03*
X130520000Y-30800000D03*
%TD*%
D24*
%TO.C,IO1*%
X132960000Y-18980000D03*
X138740000Y-18980000D03*
D25*
X132625000Y-20425000D03*
X133400000Y-20425000D03*
D26*
X134100000Y-20425000D03*
X134600000Y-20425000D03*
X135100000Y-20425000D03*
X135600000Y-20425000D03*
X136100000Y-20425000D03*
X136600000Y-20425000D03*
X137100000Y-20425000D03*
X137600000Y-20425000D03*
D25*
X138300000Y-20425000D03*
X139075000Y-20425000D03*
%TD*%
D14*
%TO.C,D22*%
X219450000Y-43575000D03*
X219450000Y-40025000D03*
%TD*%
D19*
%TO.C,C9*%
X137750000Y-43680000D03*
X137750000Y-42720000D03*
%TD*%
D27*
%TO.C,R4*%
X136200000Y-43710000D03*
X136200000Y-42690000D03*
%TD*%
D14*
%TO.C,D34*%
X219450000Y-62575000D03*
X219450000Y-59025000D03*
%TD*%
%TO.C,D36*%
X257450000Y-62575000D03*
X257450000Y-59025000D03*
%TD*%
D18*
%TO.C,R1*%
X133600000Y-21890000D03*
X133600000Y-22910000D03*
%TD*%
D14*
%TO.C,D41*%
X105450000Y-81575000D03*
X105450000Y-78025000D03*
%TD*%
%TO.C,D49*%
X10450000Y-43575000D03*
X10450000Y-40025000D03*
%TD*%
%TO.C,D47*%
X238450000Y-81575000D03*
X238450000Y-78025000D03*
%TD*%
%TO.C,D42*%
X124450000Y-81575000D03*
X124450000Y-78025000D03*
%TD*%
%TO.C,D29*%
X105450000Y-62575000D03*
X105450000Y-59025000D03*
%TD*%
%TO.C,D5*%
X105450000Y-24575000D03*
X105450000Y-21025000D03*
%TD*%
%TO.C,D25*%
X29450000Y-62575000D03*
X29450000Y-59025000D03*
%TD*%
D23*
%TO.C,C4*%
X138680000Y-30600000D03*
X137720000Y-30600000D03*
%TD*%
D14*
%TO.C,D35*%
X238450000Y-62575000D03*
X238450000Y-59025000D03*
%TD*%
%TO.C,D28*%
X86450000Y-62575000D03*
X86450000Y-59025000D03*
%TD*%
%TO.C,D14*%
X48450000Y-43575000D03*
X48450000Y-40025000D03*
%TD*%
%TO.C,D51*%
X10450000Y-81575000D03*
X10450000Y-78025000D03*
%TD*%
%TO.C,D13*%
X29450000Y-43575000D03*
X29450000Y-40025000D03*
%TD*%
%TO.C,D21*%
X200450000Y-43575000D03*
X200450000Y-40025000D03*
%TD*%
%TO.C,D11*%
X238450000Y-24575000D03*
X238450000Y-21025000D03*
%TD*%
%TO.C,D9*%
X200450000Y-24575000D03*
X200450000Y-21025000D03*
%TD*%
%TO.C,D10*%
X219450000Y-24575000D03*
X219450000Y-21025000D03*
%TD*%
%TO.C,D54*%
X124450000Y-100575000D03*
X124450000Y-97025000D03*
%TD*%
%TO.C,D31*%
X162450000Y-62575000D03*
X162450000Y-59025000D03*
%TD*%
D15*
%TO.C,BT1*%
X141400000Y-54300000D03*
X141400000Y-47800000D03*
%TD*%
D14*
%TO.C,D55*%
X162450000Y-100575000D03*
X162450000Y-97025000D03*
%TD*%
%TO.C,D16*%
X86450000Y-43575000D03*
X86450000Y-40025000D03*
%TD*%
%TO.C,D56*%
X181450000Y-100575000D03*
X181450000Y-97025000D03*
%TD*%
%TO.C,D17*%
X105450000Y-43575000D03*
X105450000Y-40025000D03*
%TD*%
%TO.C,D24*%
X257450000Y-43575000D03*
X257450000Y-40025000D03*
%TD*%
D22*
%TO.C,C3*%
X141920000Y-32000000D03*
X142880000Y-32000000D03*
%TD*%
D14*
%TO.C,D57*%
X200450000Y-100575000D03*
X200450000Y-97025000D03*
%TD*%
M02*
