%TF.GenerationSoftware,KiCad,Pcbnew,7.0.9*%
%TF.CreationDate,2024-01-02T07:13:13+09:00*%
%TF.ProjectId,SpaceCadet2024,53706163-6543-4616-9465-74323032342e,rev?*%
%TF.SameCoordinates,Original*%
%TF.FileFunction,Profile,NP*%
%FSLAX46Y46*%
G04 Gerber Fmt 4.6, Leading zero omitted, Abs format (unit mm)*
G04 Created by KiCad (PCBNEW 7.0.9) date 2024-01-02 07:13:13*
%MOMM*%
%LPD*%
G01*
G04 APERTURE LIST*
%TA.AperFunction,Profile*%
%ADD10C,0.100000*%
%TD*%
G04 APERTURE END LIST*
D10*
X11400000Y-31825000D02*
G75*
G03*
X12825000Y-30400000I-1J1425001D01*
G01*
X69825000Y-89300000D02*
G75*
G03*
X68400000Y-87875000I-1425001J-1D01*
G01*
X203299999Y-87874999D02*
G75*
G03*
X201874999Y-89299999I1J-1425001D01*
G01*
X258874998Y-30400001D02*
G75*
G03*
X260299998Y-31825001I1425001J1D01*
G01*
X-4750000Y-31825000D02*
G75*
G03*
X-6175000Y-33250000I0J-1425000D01*
G01*
X258875000Y-14250000D02*
X258874998Y-30400001D01*
X-6175000Y-86450000D02*
X-6175000Y-33250000D01*
X277875000Y-33250000D02*
X277875000Y-86450000D01*
X14250000Y-12825000D02*
G75*
G03*
X12825000Y-14250000I0J-1425000D01*
G01*
X-6175000Y-86450000D02*
G75*
G03*
X-4750000Y-87875000I1425000J0D01*
G01*
X69825000Y-105450000D02*
X69825000Y-89300000D01*
X277875000Y-33250000D02*
G75*
G03*
X276450000Y-31825000I-1425000J0D01*
G01*
X12825000Y-30400000D02*
X12825000Y-14250000D01*
X276450000Y-87875000D02*
X203299999Y-87874999D01*
X68400000Y-87875000D02*
X-4750000Y-87875000D01*
X200450000Y-106875000D02*
G75*
G03*
X201875000Y-105450000I0J1425000D01*
G01*
X258875000Y-14250000D02*
G75*
G03*
X257450000Y-12825000I-1425000J0D01*
G01*
X69825000Y-105450000D02*
G75*
G03*
X71250000Y-106875000I1425000J0D01*
G01*
X260299998Y-31825001D02*
X276450000Y-31825000D01*
X200450000Y-106875000D02*
X71250000Y-106875000D01*
X276450000Y-87875000D02*
G75*
G03*
X277875000Y-86450000I0J1425000D01*
G01*
X201874999Y-89299999D02*
X201875000Y-105450000D01*
X-4750000Y-31825000D02*
X11400000Y-31825000D01*
X14250000Y-12825000D02*
X257450000Y-12825000D01*
M02*
