M48
; DRILL file {KiCad 7.0.9} date Tue Jan  2 18:20:27 2024
; FORMAT={-:-/ absolute / inch / decimal}
; #@! TF.CreationDate,2024-01-02T18:20:27+09:00
; #@! TF.GenerationSoftware,Kicad,Pcbnew,7.0.9
; #@! TF.FileFunction,Plated,1,2,PTH
FMAT,2
INCH
; #@! TA.AperFunction,Plated,PTH,ViaDrill
T1C0.0157
; #@! TA.AperFunction,Plated,PTH,ComponentDrill
T2C0.0236
; #@! TA.AperFunction,Plated,PTH,ComponentDrill
T3C0.0512
%
G90
G05
T1
X0.4134Y-1.7126
X0.4134Y-2.4606
X0.4134Y-3.2087
X0.561Y-0.748
X0.561Y-1.4961
X0.561Y-1.9291
X0.561Y-2.2441
X0.561Y-2.9921
X1.3091Y-0.748
X1.3091Y-1.4961
X1.3091Y-1.8996
X1.3091Y-2.2441
X1.3091Y-2.5295
X1.3091Y-2.9921
X2.0571Y-0.748
X2.0571Y-1.4961
X2.0571Y-1.8701
X2.0571Y-2.2441
X2.0571Y-2.8051
X2.0571Y-2.9921
X2.8051Y-0.748
X2.8051Y-1.4961
X2.8051Y-1.8406
X2.8051Y-2.2441
X2.8051Y-2.9921
X2.8051Y-3.7402
X3.5531Y-0.748
X3.5531Y-1.4961
X3.5531Y-1.811
X3.5531Y-2.2441
X3.5531Y-2.9921
X3.5531Y-3.7402
X4.3012Y-0.748
X4.3012Y-1.4961
X4.3012Y-1.7815
X4.3012Y-2.2441
X4.3012Y-2.9921
X4.3012Y-3.7402
X4.8996Y-0.9675
X5.0394Y-1.8307
X5.0394Y-2.4636
X5.0591Y-1.4075
X5.0886Y-1.8307
X5.0886Y-3.2116
X5.1378Y-1.8307
X5.1378Y-3.9596
X5.2677Y-1.1575
X5.2913Y-1.746
X5.4087Y-0.7315
X5.5155Y-1.1927
X5.5167Y-0.9537
X5.5197Y-1.7165
X5.6102Y-0.7293
X5.689Y-1.0236
X5.7972Y-1.3287
X5.8268Y-0.748
X5.8268Y-1.186
X5.8268Y-1.4961
X5.8268Y-2.2441
X5.8268Y-2.9921
X5.8268Y-3.7402
X6.5748Y-0.748
X6.5748Y-1.2402
X6.5748Y-1.4961
X6.5748Y-2.2441
X6.5748Y-2.9921
X6.5748Y-3.7402
X7.3228Y-0.748
X7.3228Y-1.4961
X7.3228Y-1.7618
X7.3228Y-2.2441
X7.3228Y-2.9921
X7.3228Y-3.7402
X8.0709Y-0.748
X8.0709Y-1.4961
X8.0709Y-1.7913
X8.0709Y-2.2441
X8.0709Y-2.9921
X8.8189Y-0.748
X8.8189Y-1.4961
X8.8189Y-1.8209
X8.8189Y-2.2441
X8.8189Y-2.5197
X8.8189Y-2.9921
X9.5669Y-0.748
X9.5669Y-1.4961
X9.5669Y-1.8504
X9.5669Y-2.2441
X9.5669Y-2.9921
X10.2067Y-3.2972
X10.8268Y-1.7421
X10.8366Y-2.4409
T3
X5.3465Y-1.8819
X5.3465Y-2.1378
X5.5669Y-1.8819
X5.5669Y-2.1378
T2
G00X5.1783Y-0.5917
M15
G01X5.1783Y-0.6154
M16
G05
G00X5.1783Y-0.7465
M15
G01X5.1783Y-0.7898
M16
G05
G00X5.5185Y-0.5917
M15
G01X5.5185Y-0.6154
M16
G05
G00X5.5185Y-0.7465
M15
G01X5.5185Y-0.7898
M16
G05
T0
M30
